<?xml version="1.0" standalone="no"?>
<!DOCTYPE svg PUBLIC "-//W3C//DTD SVG 20010904//EN"
 "http://www.w3.org/TR/2001/REC-SVG-20010904/DTD/svg10.dtd">
<svg version="1.0" xmlns="http://www.w3.org/2000/svg"
 width="2000.000000pt" height="1280.000000pt" viewBox="0 0 2000.000000 1280.000000"
 preserveAspectRatio="xMidYMid meet">
<metadata>
Created by potrace 1.16, written by Peter Selinger 2001-2019
</metadata>
<g transform="translate(0.000000,1280.000000) scale(0.100000,-0.100000)"
fill="#000000" stroke="none">
<path d="M0 12450 c0 -303 2 -350 15 -350 8 0 59 12 112 26 113 30 98 27 273
53 205 31 467 41 776 30 148 -5 279 -12 292 -14 13 -3 22 -13 22 -25 0 -10 5
-22 10 -25 6 -3 10 -17 10 -31 0 -29 13 -54 58 -112 19 -23 38 -39 44 -36 5 3
20 -4 34 -17 19 -18 27 -20 36 -11 7 7 22 12 35 12 12 0 33 5 46 11 20 9 28 6
56 -20 18 -17 41 -31 50 -31 9 0 22 -5 28 -11 6 -6 29 -15 52 -20 33 -7 47 -6
64 6 12 8 34 15 50 15 34 0 118 -20 132 -31 6 -4 17 -4 25 1 8 6 26 10 41 10
30 0 119 54 119 73 0 7 9 19 20 27 11 8 20 23 20 33 0 13 5 17 18 13 9 -3 76
-21 147 -40 72 -20 144 -41 160 -47 17 -6 57 -18 90 -28 59 -18 283 -113 360
-153 89 -47 184 -117 256 -189 95 -95 153 -204 166 -317 5 -40 7 -75 4 -78 -3
-3 -7 -21 -8 -41 -1 -21 -9 -41 -18 -45 -8 -5 -13 -13 -10 -18 3 -5 1 -11 -5
-15 -15 -9 -12 -55 4 -55 17 0 26 21 26 60 0 16 7 30 15 34 8 3 15 1 15 -4 0
-6 7 -10 15 -10 8 0 15 5 15 10 0 7 308 10 905 10 l905 0 -17 -35 c-9 -19 -20
-35 -25 -35 -4 0 -8 -9 -8 -20 0 -11 4 -20 8 -20 9 0 9 -47 0 -56 -17 -16 119
-148 163 -159 43 -11 81 -7 92 8 5 9 10 7 18 -6 6 -9 14 -15 20 -12 5 4 9 -3
9 -15 0 -12 5 -30 10 -40 8 -14 5 -28 -11 -54 -19 -33 -19 -56 1 -56 5 0 12 9
15 20 10 33 22 23 29 -25 4 -24 11 -47 16 -50 5 -3 8 -23 6 -44 -3 -28 1 -43
15 -55 18 -15 19 -14 19 4 0 11 -4 28 -9 38 -5 9 -18 55 -30 102 -11 47 -30
119 -42 160 -31 111 -34 124 -20 116 6 -4 11 -15 11 -24 0 -27 60 -191 103
-282 46 -97 108 -186 140 -201 75 -34 131 75 161 309 24 188 17 448 -18 603
-23 106 -27 134 -17 124 15 -16 51 -139 82 -280 14 -66 21 -145 26 -295 7
-253 -7 -398 -70 -728 -20 -110 -1 -192 45 -192 29 0 126 82 208 174 79 89 96
114 101 149 3 23 7 32 7 20 1 -13 6 -23 10 -23 5 0 44 47 86 105 74 99 98 127
78 88 -30 -57 -82 -175 -82 -186 0 -7 -4 -17 -9 -22 -6 -6 -21 -48 -34 -95
-18 -64 -22 -98 -18 -140 5 -50 8 -55 32 -58 76 -9 316 197 666 573 66 72 137
150 157 173 71 85 34 27 -66 -106 -57 -75 -110 -145 -118 -158 -15 -22 -93
-139 -136 -204 -13 -19 -30 -53 -39 -75 -10 -22 -24 -54 -32 -72 -22 -47 -14
-77 20 -81 16 -2 38 3 50 11 12 7 36 19 54 25 l32 11 -45 -57 c-25 -31 -72
-88 -104 -127 -167 -195 -227 -297 -190 -320 11 -7 126 41 154 64 18 16 44 29
304 160 70 34 135 67 145 72 43 22 57 29 140 68 95 45 97 45 97 32 0 -8 -124
-91 -136 -91 -7 0 -158 -103 -252 -173 -89 -66 -345 -287 -339 -293 1 -2 36 8
77 22 156 55 275 76 410 74 114 -2 161 -7 172 -18 6 -6 16 -8 22 -6 13 5 86
-23 86 -32 0 -4 -20 -4 -45 -2 -44 5 -69 -4 -40 -15 8 -4 60 -7 117 -8 72 -1
127 -8 183 -24 44 -13 97 -26 118 -29 22 -4 37 -13 37 -21 0 -28 53 -65 93
-65 95 0 150 62 146 164 -2 51 0 56 36 87 29 25 48 34 77 35 62 1 117 47 140
114 13 40 27 61 52 78 34 23 70 88 80 147 8 45 -9 102 -49 162 l-37 55 25 27
c32 34 44 75 41 131 -3 38 -10 51 -44 81 -22 20 -40 42 -40 48 0 6 -5 11 -11
11 -6 0 -8 9 -4 20 3 11 2 20 -4 20 -5 0 -11 -10 -13 -21 -2 -14 -20 -30 -51
-47 -31 -16 -56 -38 -70 -63 -12 -21 -27 -39 -34 -39 -25 0 -23 21 6 57 16 21
39 63 51 93 11 30 25 64 31 76 6 12 9 30 8 40 -2 10 0 24 4 31 4 6 3 14 -3 18
-5 3 -10 15 -10 25 0 10 -3 21 -8 24 -4 2 -8 -30 -8 -72 -1 -53 -7 -94 -22
-132 -23 -58 -104 -160 -118 -147 -4 4 2 17 14 30 38 40 64 117 68 198 4 98
-28 191 -83 235 -84 68 -126 113 -117 126 15 20 37 89 30 95 -3 3 -10 -5 -15
-18 -21 -58 -40 -99 -45 -99 -2 0 0 15 6 33 33 98 16 258 -39 362 -42 81 -70
117 -121 157 -77 60 -73 53 -58 100 30 102 -15 273 -94 356 -100 104 -257 133
-392 71 l-47 -22 -44 39 c-49 43 -123 74 -177 74 -53 0 -137 -33 -173 -69 -39
-37 -41 -37 -77 -11 -26 18 -120 44 -129 35 -1 -2 7 -34 19 -71 19 -56 22 -82
18 -158 -6 -108 -21 -143 -79 -183 -68 -45 -79 -68 -68 -133 23 -133 -34 -311
-117 -365 -22 -14 -21 -10 10 33 72 99 101 239 67 325 -26 65 -24 72 17 100
21 15 50 40 64 55 28 30 58 121 58 174 -2 116 -105 216 -212 205 -58 -7 -121
-39 -150 -77 -28 -38 -34 -38 -42 2 -10 48 -77 154 -111 174 -16 10 -55 23
-85 29 -63 13 -107 4 -155 -30 -30 -22 -62 -36 -69 -32 -3 1 -16 -9 -30 -22
-23 -22 -42 -71 -38 -97 1 -7 -4 -14 -13 -17 -8 -4 -20 -26 -26 -51 -11 -43
-36 -66 -58 -52 -11 7 -62 -9 -119 -37 -45 -22 -115 -91 -134 -132 -19 -42
-27 -28 -14 23 27 101 77 165 171 217 34 19 74 35 88 35 50 0 74 16 82 56 8
47 45 121 77 155 14 15 55 41 93 59 64 31 73 32 151 27 77 -4 85 -7 117 -38
33 -32 74 -109 95 -174 l10 -30 10 26 c11 28 61 69 109 88 31 13 106 8 128 -9
17 -13 74 -20 80 -10 3 6 13 10 22 10 9 0 25 8 35 17 29 26 105 26 142 0 42
-30 62 -23 114 34 24 27 56 52 70 55 15 4 32 11 39 16 12 10 107 13 154 6 14
-3 36 -13 48 -25 12 -11 34 -26 49 -33 15 -8 33 -18 40 -24 7 -5 68 -9 136
-10 87 -1 128 -5 139 -14 9 -8 20 -11 25 -8 4 2 26 -11 48 -30 21 -20 58 -50
82 -67 44 -32 60 -57 94 -145 23 -62 32 -180 17 -235 -9 -34 -8 -42 10 -58 11
-11 24 -19 28 -19 4 -1 28 -21 53 -45 25 -25 47 -40 49 -34 2 6 -12 23 -30 39
-19 15 -31 31 -27 36 4 4 43 15 85 25 43 9 96 22 118 27 22 6 123 15 225 22
155 9 218 9 385 -4 110 -9 218 -23 240 -31 22 -8 56 -14 76 -15 20 0 65 -9
100 -19 114 -34 203 -60 234 -67 17 -4 39 -13 50 -20 11 -6 36 -15 55 -19 35
-7 45 -11 154 -59 32 -14 64 -26 71 -26 6 0 20 -9 30 -20 10 -11 24 -20 30
-20 7 0 24 -9 38 -20 14 -11 32 -20 41 -20 9 0 24 -9 33 -20 10 -11 24 -20 31
-20 8 0 27 -11 44 -25 16 -14 35 -25 43 -25 7 0 15 -7 19 -15 3 -8 13 -15 22
-15 15 0 15 2 0 25 -9 13 -16 31 -16 40 0 8 -13 29 -29 45 -21 23 -31 44 -35
84 -5 34 -14 60 -27 72 -19 17 -33 56 -44 124 -3 19 -13 58 -23 85 -13 39 -17
86 -17 220 0 160 2 175 29 260 46 142 58 175 68 181 5 3 20 29 32 57 55 121
261 347 439 480 20 15 37 32 37 38 0 5 -1976 9 -5335 9 l-5335 0 0 -350z
m6845 223 c30 -19 57 -43 60 -53 4 -11 10 -20 14 -20 22 0 101 -76 112 -107
14 -44 5 -54 -15 -15 -9 18 -31 36 -55 46 -29 11 -46 27 -60 53 -73 143 -235
136 -306 -14 -14 -29 -18 -31 -45 -23 -66 19 -131 -23 -155 -101 l-14 -44 0
40 c-1 48 35 107 78 130 27 14 78 14 101 0 5 -3 15 6 20 21 47 122 153 157
265 87z m-4837 -252 c28 -18 61 -48 73 -67 20 -33 22 -34 76 -30 42 4 65 0 93
-14 49 -25 113 -99 128 -147 l11 -38 -29 35 c-16 19 -30 38 -30 42 0 4 -24 20
-52 35 -37 18 -70 27 -111 28 -54 2 -60 4 -92 43 -50 58 -93 81 -164 88 -52 6
-70 3 -110 -15 -53 -26 -101 -87 -101 -132 0 -25 -3 -27 -53 -31 -59 -5 -88
-24 -108 -73 -10 -24 -13 -27 -17 -11 -6 28 26 99 55 120 14 11 48 21 75 24
39 4 48 8 48 24 0 39 41 99 88 129 42 27 54 30 108 27 48 -3 71 -11 112 -37z"/>
<path d="M15550 12786 c0 -7 12 -22 28 -32 81 -52 254 -206 420 -372 131 -131
128 -130 222 -54 207 168 546 345 795 417 84 24 105 33 105 45 0 7 -257 10
-785 10 -662 0 -785 -2 -785 -14z"/>
<path d="M18552 12788 c3 -7 54 -25 114 -41 114 -29 348 -106 418 -136 23 -10
91 -40 151 -66 95 -41 320 -154 451 -227 66 -37 182 -110 230 -145 24 -18 53
-33 64 -33 20 0 20 7 20 330 l0 330 -726 0 c-570 0 -725 -3 -722 -12z"/>
<path d="M18307 12370 c-65 -17 -99 -40 -195 -134 -59 -58 -120 -131 -168
-202 -85 -127 -109 -148 -171 -145 -44 1 -153 37 -164 53 -3 5 -35 11 -70 14
-35 2 -72 7 -82 10 -19 6 -67 -3 -202 -38 -106 -27 -161 -49 -241 -98 -36 -22
-69 -40 -72 -40 -8 0 -136 -83 -143 -93 -12 -16 -101 -36 -236 -52 -152 -17
-304 -60 -364 -101 -71 -49 -214 -88 -362 -98 -85 -7 -131 -19 -204 -55 -60
-30 -155 -57 -232 -66 -24 -3 -58 -12 -75 -20 -45 -21 -146 -55 -165 -55 -9 0
-27 -6 -41 -13 -50 -26 -187 -76 -270 -98 -47 -13 -89 -26 -95 -30 -16 -10
-133 -38 -212 -49 -79 -11 -179 -45 -245 -84 -24 -13 -69 -34 -101 -46 -31
-12 -63 -27 -70 -33 -29 -29 -69 -47 -99 -47 -45 0 -224 -27 -328 -51 -94 -21
-265 -101 -281 -131 -6 -10 -14 -16 -18 -14 -5 3 -17 -4 -27 -15 -10 -11 -50
-36 -89 -54 -79 -39 -178 -55 -331 -55 -134 0 -294 -34 -374 -80 -99 -57 -153
-95 -160 -114 -13 -36 -160 -171 -219 -201 -46 -23 -121 -14 -237 28 -84 30
-97 32 -224 32 -106 0 -149 -4 -200 -20 -103 -31 -254 -147 -385 -296 -16 -19
-54 -55 -83 -81 -70 -64 -102 -65 -252 -15 -91 30 -102 31 -250 31 -164 0
-155 2 -310 -63 -110 -46 -178 -82 -184 -97 -9 -23 -129 -97 -206 -126 -60
-23 -101 -31 -210 -39 -169 -12 -188 -14 -197 -22 -3 -4 -17 -7 -31 -7 -13 0
-50 -13 -81 -29 -31 -15 -101 -43 -156 -61 -429 -139 -430 -140 -528 -234 -61
-58 -149 -88 -252 -86 -146 4 -243 0 -320 -14 -44 -8 -114 -19 -155 -26 -107
-16 -133 -26 -245 -88 -71 -40 -123 -79 -181 -135 -45 -44 -86 -82 -91 -86
-14 -9 -34 -49 -39 -78 -3 -14 -12 -40 -21 -57 -10 -19 -17 -60 -18 -106 -2
-41 -5 -84 -9 -95 -8 -28 22 -61 79 -85 68 -29 59 -52 -25 -65 l-65 -11 1 -39
c1 -22 3 -110 4 -195 2 -133 5 -160 22 -187 14 -24 18 -44 15 -75 -8 -67 -19
-121 -29 -141 -5 -10 -13 -46 -17 -80 -8 -60 -9 -60 -10 -16 0 28 -7 52 -16
59 -8 7 -13 16 -10 20 3 5 -2 51 -11 102 -9 51 -18 107 -21 123 -2 17 -9 39
-14 50 -5 11 -16 40 -24 65 -38 111 -107 168 -210 173 -36 2 -67 6 -69 8 -2 2
0 48 6 102 5 54 7 105 4 113 -3 8 -21 22 -41 31 -51 24 -44 53 18 68 34 9 47
32 47 82 1 21 8 56 16 78 8 22 17 81 21 131 7 110 12 106 -140 135 -116 22
-207 24 -308 8 -38 -7 -72 -9 -75 -6 -3 3 9 19 28 35 18 17 30 33 26 37 -3 4
-41 -29 -84 -74 l-78 -80 -16 25 c-39 58 -345 354 -412 398 -39 26 -35 56 16
123 60 80 136 191 136 198 0 4 11 21 25 39 14 18 25 36 25 40 0 3 14 25 30 48
34 46 37 76 15 139 -17 48 -113 178 -148 202 -12 8 -33 26 -46 38 -30 29 -81
61 -143 90 -27 13 -48 26 -48 31 0 4 -15 8 -33 8 -18 0 -38 5 -43 10 -6 6 -63
12 -127 15 l-116 4 -25 -29 c-13 -16 -27 -49 -31 -72 -4 -24 -31 -117 -61
-208 -30 -91 -54 -170 -54 -177 0 -23 -38 -100 -53 -106 -8 -3 -41 0 -73 7
-33 8 -113 25 -179 40 -133 29 -395 56 -494 49 -50 -3 -68 0 -82 13 -11 10
-29 22 -42 28 -20 11 -22 20 -28 126 -7 138 -19 179 -64 219 -46 40 -101 54
-211 54 -136 -1 -271 -34 -360 -89 -68 -42 -89 -67 -125 -142 l-30 -63 16 -49
c9 -28 32 -82 51 -120 57 -117 45 -148 -83 -213 -132 -67 -233 -129 -336 -205
-90 -65 -145 -110 -171 -139 -38 -44 -57 -32 -171 108 -107 130 -151 168 -227
195 -85 30 -222 5 -294 -52 -79 -63 -214 -276 -214 -337 0 -13 -5 -28 -11 -34
-15 -15 -21 -135 -9 -205 5 -33 19 -81 32 -107 28 -58 163 -188 285 -273 38
-27 40 -37 14 -92 -43 -94 -54 -121 -75 -183 -13 -35 -28 -69 -33 -74 -16 -16
-50 5 -68 42 -20 38 -43 46 -147 54 -95 8 -214 -12 -287 -48 -25 -12 -61 -44
-83 -70 -47 -60 -51 -104 -13 -149 14 -16 25 -37 25 -46 0 -10 15 -39 34 -65
19 -26 37 -59 41 -74 3 -14 19 -38 34 -52 17 -16 31 -42 35 -66 4 -22 18 -51
31 -65 12 -14 26 -41 30 -60 4 -19 18 -52 32 -73 13 -20 26 -50 29 -66 7 -34
-9 -42 -78 -43 -44 0 -135 -24 -153 -39 -5 -5 -15 -9 -22 -9 -21 0 -80 -58
-98 -96 -9 -19 -20 -34 -24 -34 -5 0 -11 -23 -14 -51 -4 -28 -11 -57 -17 -64
-13 -15 -10 -64 6 -90 7 -11 15 -49 19 -85 8 -78 46 -224 82 -315 27 -68 86
-188 102 -208 9 -10 27 -31 40 -45 21 -23 22 -27 8 -30 -18 -4 -21 -19 -11
-46 9 -23 23 -20 35 8 9 19 16 22 37 17 l25 -7 -2 -143 c-1 -79 -7 -155 -12
-170 -27 -72 -63 -132 -77 -129 -16 3 -21 46 -25 229 -2 98 -5 120 -21 138
-19 21 -46 115 -46 162 0 15 -7 29 -15 33 -8 3 -15 14 -15 25 0 10 -14 31 -32
46 -31 26 -37 27 -116 23 -68 -4 -87 -8 -104 -26 -19 -18 -20 -25 -10 -47 16
-35 15 -65 -3 -65 -8 0 -18 14 -23 32 -6 23 -21 40 -53 59 -55 34 -83 36 -104
7 -15 -23 -16 -23 -48 -4 -22 13 -58 21 -115 24 l-83 5 6 28 c10 44 -28 63
-114 57 -82 -6 -95 -1 -85 37 9 37 -6 45 -97 45 -55 0 -89 -6 -120 -20 -30
-13 -66 -20 -113 -20 -51 0 -77 -5 -101 -20 -27 -17 -53 -21 -142 -23 -96 -2
-112 1 -148 21 -22 12 -44 22 -50 22 -5 0 -21 9 -35 20 -14 11 -37 20 -52 20
l-28 0 0 -1005 c0 -868 2 -1005 14 -1005 20 0 25 -10 32 -69 8 -67 -1 -101
-26 -101 -20 0 -20 -11 -20 -1345 l0 -1345 26 0 c26 0 67 6 299 42 188 29 235
32 248 19 25 -25 -30 -53 -233 -123 -30 -10 -69 -25 -87 -33 -17 -8 -34 -15
-38 -15 -7 0 -42 -15 -123 -51 -23 -10 -54 -19 -67 -19 l-25 0 0 -379 0 -379
23 -6 c13 -3 29 -16 35 -30 10 -23 77 -115 91 -126 3 -3 19 -22 34 -42 30 -40
53 -47 101 -28 15 5 89 73 167 150 80 79 152 143 167 147 16 4 35 0 51 -10 14
-9 41 -24 58 -34 18 -9 33 -22 33 -29 0 -12 -39 -47 -107 -97 -128 -92 -175
-138 -160 -154 18 -18 169 -21 917 -22 437 -1 800 -5 806 -9 19 -12 48 -112
37 -123 -16 -16 -912 -11 -1289 6 -385 18 -530 19 -539 4 -8 -11 54 -139 67
-139 4 0 19 -22 32 -48 13 -27 32 -54 40 -61 9 -8 16 -20 16 -27 0 -12 321
-14 2090 -14 1680 0 2090 2 2090 13 0 17 -298 127 -343 127 -5 0 -23 7 -40 15
-18 8 -52 21 -77 29 -25 8 -70 24 -100 36 -154 60 -189 73 -235 87 -60 18 -87
41 -110 94 -28 60 -13 65 86 28 210 -79 348 -129 384 -139 17 -4 68 -22 115
-40 47 -18 105 -36 130 -41 106 -22 189 -43 245 -60 122 -37 342 -97 398 -109
32 -6 61 -18 64 -26 7 -19 173 -21 173 -1 0 6 -42 41 -92 77 -50 36 -126 92
-169 125 -201 157 -233 181 -255 195 -94 61 -154 105 -154 112 0 4 -13 14 -30
23 -34 18 -39 35 -10 35 33 0 341 -96 485 -151 28 -10 66 -22 85 -26 19 -3 49
-15 65 -25 17 -10 37 -18 45 -18 8 0 29 -7 45 -16 17 -9 86 -36 155 -60 69
-25 139 -50 155 -58 17 -7 46 -19 65 -26 61 -23 73 -45 51 -88 -20 -36 -51
-103 -51 -107 0 -3 48 -5 106 -5 94 0 105 2 102 17 -2 9 -23 32 -48 51 -25 19
-46 38 -48 42 -1 4 23 10 55 14 32 4 74 9 93 12 29 4 40 0 65 -24 42 -41 75
-85 75 -99 0 -10 50 -13 215 -13 153 0 215 3 215 11 0 6 28 38 63 69 42 40 59
62 52 69 -5 5 -50 20 -100 32 -49 12 -118 32 -152 45 -34 13 -68 24 -77 24 -8
0 -27 5 -43 11 -25 9 -26 11 -10 20 10 6 111 17 225 25 114 8 322 26 462 40
428 42 385 42 477 0 44 -20 84 -36 89 -36 8 0 39 -15 135 -66 57 -30 64 -48
61 -150 l-3 -94 476 0 c462 0 476 1 495 20 34 34 210 30 210 -5 0 -13 239 -15
1985 -15 1677 0 1985 2 1985 14 0 7 -7 33 -15 56 -19 53 -20 91 -2 85 13 -6
31 -54 42 -118 l7 -37 3484 0 3484 0 0 1195 c0 1162 -1 1195 -19 1195 -10 0
-35 -7 -54 -15 -86 -36 -108 -9 -99 115 7 85 7 85 42 102 19 10 56 18 83 18
l47 0 0 1245 0 1245 -47 0 c-55 1 -61 4 -163 82 -41 31 -104 71 -140 90 -78
41 -84 62 -25 95 72 40 132 48 216 28 41 -10 86 -24 101 -31 61 -31 58 -57 58
431 0 400 -2 445 -16 445 -9 0 -27 9 -40 19 -14 11 -56 25 -94 31 -71 12 -102
32 -82 52 6 6 46 13 89 15 43 2 93 6 111 9 l32 5 0 544 0 545 -22 1 c-13 1
-35 0 -50 -1 -36 -2 -67 16 -78 45 -5 13 -27 36 -49 50 -32 22 -43 25 -60 16
-57 -31 -88 13 -51 73 24 40 26 69 4 86 -16 14 -47 80 -40 87 8 8 63 -26 94
-57 43 -43 73 -39 136 15 39 33 62 45 85 45 l31 0 0 585 0 585 -100 0 c-60 0
-100 4 -100 10 0 6 -14 10 -31 10 -22 0 -32 -5 -36 -20 -6 -24 -51 -28 -59 -5
-4 9 -19 15 -35 15 -24 0 -29 4 -29 25 0 14 -4 25 -10 25 -5 0 -12 11 -16 25
-4 15 -13 25 -23 25 -10 0 -25 8 -34 18 -49 53 -57 64 -57 80 0 29 -54 152
-66 148 -14 -5 -26 3 -47 34 -21 31 -23 90 -3 90 8 0 18 9 21 20 4 14 15 20
33 20 21 0 45 18 97 70 38 38 66 73 62 76 -4 4 -14 -1 -22 -12 -9 -11 -14 -13
-13 -5 2 7 -3 16 -9 18 -7 3 -13 0 -13 -6 0 -6 -4 -11 -8 -11 -5 0 -8 10 -7
23 2 13 8 21 16 19 8 -2 11 0 7 4 -4 4 6 31 22 60 17 29 30 56 29 61 -4 21 2
44 10 39 4 -3 14 12 21 33 10 30 10 47 1 72 -8 25 -8 47 0 92 12 60 11 70 -26
232 -8 33 -19 94 -26 135 -6 41 -20 99 -31 129 -19 54 -36 164 -43 276 -3 51
-27 154 -48 205 -3 8 -13 40 -21 70 -86 314 -169 558 -236 695 -27 55 -59 125
-73 155 -14 34 -65 103 -130 178 -108 126 -126 143 -187 176 -19 10 -44 26
-55 36 -42 35 -80 42 -230 46 -82 2 -167 -1 -188 -6z m272 -217 c30 -15 82
-53 115 -87 86 -86 195 -253 181 -276 -3 -6 0 -10 7 -10 7 0 21 -18 30 -40 9
-22 12 -40 7 -40 -5 0 -9 -4 -9 -10 0 -5 7 -10 15 -10 18 0 20 -20 3 -20 -7 0
-4 -6 7 -12 29 -16 34 -28 25 -54 -7 -19 -4 -27 16 -43 16 -13 20 -21 12 -23
-10 -4 -10 -8 -1 -20 7 -8 10 -18 6 -21 -3 -4 2 -16 12 -27 14 -16 15 -22 5
-35 -10 -12 -10 -16 1 -20 8 -3 15 -19 16 -36 1 -17 7 -37 13 -44 6 -7 8 -20
4 -29 -3 -9 -2 -16 3 -16 5 0 10 -17 11 -37 2 -20 8 -43 14 -50 5 -7 8 -19 5
-28 -4 -8 -2 -17 4 -21 5 -3 7 -14 4 -25 -4 -11 -2 -19 5 -19 7 0 10 -6 7 -14
-3 -7 -1 -18 4 -23 7 -7 5 -16 -6 -27 -15 -14 -15 -16 -1 -16 9 0 17 -7 17
-15 3 -28 4 -33 11 -40 4 -4 3 -16 -3 -26 -7 -14 -6 -21 3 -24 8 -3 13 -20 13
-40 -1 -19 2 -35 7 -35 5 0 6 -10 3 -21 -4 -12 -2 -24 3 -28 6 -4 13 -30 16
-58 2 -29 8 -57 11 -64 4 -6 9 -39 10 -74 3 -71 12 -105 27 -105 7 0 6 -6 -2
-15 -9 -11 -9 -22 -1 -46 8 -22 8 -36 1 -44 -8 -9 -6 -14 6 -19 10 -4 14 -12
10 -22 -4 -9 -1 -23 6 -31 9 -11 9 -16 -3 -24 -9 -5 -10 -9 -2 -9 7 0 12 -15
11 -38 0 -49 12 -105 24 -113 7 -4 6 -13 0 -26 -6 -11 -7 -25 -2 -33 4 -7 6
-19 3 -27 -3 -7 1 -13 8 -13 10 0 10 -3 1 -12 -8 -8 -8 -15 -1 -24 6 -7 9 -34
7 -61 -3 -48 -3 -48 -43 -55 -22 -3 -58 -9 -80 -13 -22 -3 -85 -13 -140 -22
-55 -8 -108 -22 -117 -30 -15 -13 -17 -11 -22 29 -4 23 -22 162 -41 308 -44
333 -80 541 -112 650 -14 47 -26 92 -26 100 0 8 -10 22 -21 32 -19 15 -24 15
-43 2 -12 -8 -30 -14 -39 -14 -13 0 -14 -3 -5 -14 8 -10 9 -16 1 -21 -6 -3 -8
-10 -5 -15 3 -5 -3 -13 -12 -19 -10 -6 -13 -11 -8 -11 6 0 11 -37 12 -88 1
-48 7 -130 13 -182 13 -120 15 -128 23 -136 4 -4 2 -13 -3 -19 -7 -9 -6 -16 5
-25 11 -9 12 -16 4 -26 -6 -7 -7 -19 -2 -26 4 -7 8 -31 9 -53 0 -23 7 -52 14
-65 10 -19 10 -25 0 -28 -9 -3 -9 -6 1 -13 12 -8 12 -11 -1 -18 -12 -9 -12
-11 3 -17 9 -3 17 -13 17 -21 0 -8 -4 -11 -10 -8 -5 3 -10 1 -10 -4 0 -6 4
-11 9 -11 11 0 22 -36 24 -81 1 -20 9 -44 17 -54 11 -14 12 -19 3 -22 -9 -3
-9 -10 2 -27 9 -13 13 -29 10 -37 -3 -8 3 -31 14 -51 12 -25 15 -39 7 -42 -6
-3 -2 -8 10 -11 15 -5 20 -13 17 -29 -3 -13 3 -30 12 -40 16 -16 16 -18 -1
-31 -18 -14 -18 -14 7 -15 29 0 48 -38 26 -52 -12 -8 -10 -9 16 -12 6 0 12 -8
12 -16 0 -8 6 -21 13 -28 6 -7 12 -22 12 -31 0 -10 7 -24 16 -32 10 -8 13 -22
10 -38 -3 -14 -3 -20 1 -13 3 9 11 3 24 -18 11 -17 17 -35 14 -41 -4 -5 1 -12
10 -15 9 -4 14 -13 10 -22 -3 -9 3 -21 15 -29 12 -8 19 -21 16 -29 -3 -7 -1
-16 5 -20 10 -6 28 -44 25 -55 0 -3 5 -13 13 -22 7 -10 10 -17 5 -17 -5 0 -3
-4 4 -9 7 -4 15 -14 16 -22 2 -8 8 -27 14 -42 7 -16 12 -33 12 -38 0 -5 5 -9
11 -9 6 0 9 -7 5 -15 -3 -8 -1 -15 4 -15 6 0 10 -5 10 -11 0 -6 6 -17 14 -25
8 -7 12 -22 9 -32 -3 -12 2 -22 11 -25 9 -4 13 -13 10 -22 -4 -9 1 -24 10 -34
9 -10 14 -25 10 -35 -4 -11 -1 -16 11 -16 11 0 15 -5 12 -14 -3 -8 1 -20 9
-26 8 -7 14 -24 14 -38 0 -13 8 -31 18 -38 10 -8 12 -13 5 -14 -15 0 -18 -40
-3 -40 5 0 15 -19 21 -42 7 -24 17 -49 22 -55 6 -9 5 -13 -4 -13 -11 -1 -11
-3 1 -13 9 -7 14 -20 12 -29 -2 -9 7 -27 19 -39 16 -16 18 -23 9 -29 -9 -5 -9
-9 -1 -14 6 -4 11 -22 11 -41 0 -18 5 -35 11 -37 6 -2 12 -19 14 -39 2 -19 11
-53 20 -75 10 -21 18 -52 20 -69 10 -102 18 -150 26 -153 5 -2 6 -8 3 -13 -3
-6 -3 -18 1 -27 14 -33 15 -106 2 -114 -9 -6 -9 -8 1 -8 6 0 12 -12 12 -28 0
-15 5 -43 10 -62 7 -25 7 -36 -1 -39 -8 -2 -8 -5 0 -11 13 -8 24 -140 25 -297
0 -57 4 -103 7 -103 4 0 6 -22 4 -50 -2 -27 1 -66 5 -87 5 -20 6 -41 3 -46 -3
-6 -5 -44 -3 -86 5 -137 -3 -647 -11 -655 -2 -3 -4 -56 -3 -118 1 -74 -2 -116
-10 -121 -8 -6 -8 -10 2 -14 6 -2 10 -8 7 -12 -2 -5 -7 -41 -10 -82 -3 -41 -8
-102 -11 -136 -3 -33 -7 -78 -9 -100 -2 -21 -6 -62 -10 -92 -4 -29 -8 -76 -10
-105 -2 -28 -4 -51 -5 -51 -2 0 -4 -11 -5 -25 -2 -14 -5 -43 -9 -65 -3 -22 -8
-53 -10 -70 -2 -16 -7 -48 -12 -70 -4 -22 -8 -47 -9 -55 -1 -8 -6 -23 -10 -33
-4 -10 -5 -21 -1 -24 3 -3 2 -11 -3 -17 -14 -19 -20 -56 -9 -62 7 -4 5 -10 -4
-15 -8 -4 -14 -18 -13 -31 1 -13 -9 -43 -21 -67 -13 -24 -21 -48 -18 -53 3 -5
1 -15 -5 -22 -7 -8 -11 -18 -9 -22 1 -5 -8 -31 -20 -58 -12 -27 -22 -52 -22
-56 0 -20 -34 -70 -48 -71 -15 0 -15 -1 -1 -7 14 -6 11 -16 -23 -72 -22 -36
-46 -69 -54 -73 -8 -4 -14 -15 -14 -24 0 -22 -97 -114 -147 -140 -23 -12 -56
-22 -75 -22 -49 0 -120 20 -142 41 -20 18 -30 22 -56 19 -13 -2 -13 -1 0 8 12
8 11 11 -5 17 -26 10 -39 27 -74 94 -88 170 -141 458 -156 840 -3 85 -1 333 5
550 5 217 13 592 17 833 l6 437 219 0 c200 0 241 -5 208 -25 -6 -4 -8 -11 -5
-16 4 -5 0 -11 -7 -14 -10 -4 -12 -26 -10 -85 3 -53 0 -80 -7 -80 -6 0 -8 -8
-3 -22 7 -21 8 -97 4 -228 -2 -30 -1 -71 0 -90 1 -19 -4 -45 -11 -57 -8 -16
-8 -23 -1 -23 11 0 6 -144 -6 -182 -3 -10 -1 -18 4 -18 5 0 6 -20 2 -47 -5
-27 -4 -49 1 -51 5 -2 4 -12 -1 -23 -6 -10 -9 -37 -6 -59 3 -22 1 -42 -3 -45
-5 -2 -6 -16 -3 -31 3 -16 -1 -29 -9 -35 -10 -6 -11 -9 -1 -9 9 0 11 -32 9
-135 -2 -74 0 -135 4 -135 4 0 4 -13 -1 -29 -6 -23 -5 -31 7 -35 11 -5 12 -10
5 -19 -14 -17 59 -90 85 -85 41 7 81 142 104 353 17 160 24 802 9 941 -22 216
-99 465 -324 1044 -49 124 -98 252 -111 285 -149 385 -222 744 -354 1735 -125
933 -143 1112 -144 1390 -1 279 25 450 88 587 81 178 227 241 384 166z m-952
-447 c-2 -56 0 -73 10 -69 8 3 14 -4 14 -18 1 -13 2 -31 3 -39 1 -8 5 -21 9
-27 5 -7 6 -17 3 -22 -4 -5 -1 -11 6 -13 7 -3 13 -26 14 -56 0 -28 9 -66 18
-85 8 -19 17 -51 18 -71 2 -20 7 -36 12 -36 4 0 6 -7 2 -15 -3 -8 0 -15 5 -15
7 0 9 -11 7 -25 -3 -14 -1 -25 5 -25 5 0 7 -13 4 -30 -4 -16 -2 -32 3 -35 6
-3 10 -22 10 -41 0 -24 5 -34 15 -34 8 0 15 -4 15 -10 0 -5 -5 -10 -11 -10 -8
0 -8 -5 1 -15 7 -8 10 -24 7 -36 -4 -14 1 -23 16 -29 20 -7 20 -9 4 -15 -13
-6 -15 -10 -6 -21 6 -8 9 -20 6 -28 -3 -7 -1 -18 4 -23 4 -4 10 -30 11 -56 2
-26 6 -47 11 -47 4 0 7 -9 7 -20 0 -12 7 -20 18 -20 14 0 14 -2 3 -9 -15 -10
-22 -61 -9 -61 4 0 8 -9 8 -20 0 -12 7 -20 18 -20 16 -1 16 -1 -1 -14 -16 -12
-16 -14 -1 -20 13 -5 14 -9 4 -21 -9 -11 -10 -15 -1 -15 8 0 10 -8 6 -20 -4
-13 -1 -22 9 -26 11 -4 13 -11 5 -31 -6 -16 -5 -31 1 -44 6 -11 8 -25 4 -31
-4 -6 1 -17 11 -25 11 -7 15 -13 9 -13 -14 0 -9 -62 7 -74 9 -7 14 -28 13 -56
0 -25 4 -50 9 -57 5 -7 6 -17 2 -23 -3 -5 -1 -10 4 -10 6 0 11 -5 11 -11 0 -5
-4 -8 -9 -5 -12 8 10 -77 22 -85 5 -4 4 -9 -2 -14 -8 -4 -9 -11 -2 -19 5 -6
11 -38 12 -71 2 -33 9 -74 16 -92 10 -24 10 -34 1 -39 -8 -5 -6 -11 6 -20 12
-8 14 -14 6 -19 -8 -5 -8 -11 1 -22 10 -11 10 -16 0 -22 -9 -6 -8 -11 4 -21
11 -9 13 -15 4 -20 -8 -6 -8 -13 0 -29 10 -19 19 -68 25 -141 1 -14 6 -31 10
-38 4 -6 9 -34 11 -61 1 -27 6 -55 10 -61 4 -6 2 -17 -5 -24 -7 -9 -7 -15 -1
-18 9 -3 13 -26 26 -153 2 -16 4 -30 5 -30 3 0 11 -96 11 -122 -1 -13 3 -23 7
-23 4 0 7 -27 7 -60 0 -33 4 -60 9 -60 4 0 5 -15 2 -33 -4 -20 0 -51 8 -75 11
-31 12 -42 3 -46 -8 -3 -9 -7 -2 -13 6 -4 10 -29 9 -55 0 -27 3 -48 9 -48 5 0
7 -7 4 -15 -4 -8 -1 -17 5 -21 7 -4 6 -9 -3 -14 -10 -7 -10 -12 0 -23 8 -11 9
-17 1 -22 -8 -5 -8 -11 0 -20 6 -7 8 -20 4 -29 -3 -9 -2 -16 3 -16 5 0 8 -23
7 -52 -2 -29 0 -57 4 -62 3 -6 7 -33 8 -61 4 -127 8 -175 15 -186 4 -7 3 -22
-1 -34 -5 -14 -4 -27 3 -34 8 -8 8 -11 -2 -11 -9 0 -10 -4 -3 -12 13 -17 21
-78 11 -84 -5 -2 -4 -17 2 -31 5 -15 8 -32 5 -39 -3 -8 -2 -15 2 -18 4 -2 7
-53 7 -113 0 -84 3 -111 15 -120 13 -11 13 -12 -4 -13 -14 0 -16 -3 -8 -12 6
-7 11 -53 11 -103 3 -280 7 -385 13 -385 3 0 5 -68 4 -151 -1 -83 2 -153 6
-155 5 -3 6 -10 2 -15 -3 -6 -5 -60 -5 -120 1 -83 -1 -109 -11 -109 -10 0 -10
-2 -1 -8 11 -7 15 -43 11 -97 0 -11 1 -41 4 -66 3 -26 2 -52 -2 -60 -5 -7 -4
-21 1 -32 6 -11 7 -23 2 -30 -13 -17 -15 -65 -3 -72 5 -3 6 -15 1 -28 -4 -12
-6 -28 -4 -35 3 -7 0 -26 -6 -43 -8 -24 -7 -31 4 -36 8 -3 12 -10 8 -16 -4 -6
-8 -32 -9 -57 -1 -25 -5 -69 -8 -97 -4 -34 -2 -53 5 -53 6 0 8 -9 4 -21 -4
-11 -8 -74 -10 -139 -2 -66 -7 -124 -10 -131 -4 -6 -1 -15 6 -20 11 -7 10 -9
-5 -9 -14 0 -16 -3 -8 -12 6 -7 8 -35 6 -63 -2 -27 -5 -91 -7 -142 -1 -51 -6
-95 -9 -99 -4 -3 -4 -19 -1 -35 3 -19 1 -29 -6 -29 -7 0 -9 -5 -4 -12 11 -18
12 -68 1 -68 -5 0 -4 -9 2 -20 7 -12 7 -27 2 -37 -5 -10 -7 -30 -5 -45 2 -16
0 -28 -5 -28 -4 0 -9 -30 -11 -68 -5 -151 -5 -148 -35 -143 -42 8 -156 23
-173 23 -13 0 -23 5 -23 10 0 6 -15 8 -37 4 -29 -5 -35 -4 -23 4 12 9 9 11
-13 7 -16 -2 -47 0 -69 5 -33 7 -44 6 -61 -9 -19 -18 -20 -17 -13 27 14 98 56
651 71 925 8 160 17 299 19 311 2 16 -5 24 -29 33 -38 13 -105 14 -138 2 -22
-9 -44 -51 -38 -75 1 -5 -4 -13 -11 -17 -8 -5 -9 -9 -2 -9 7 0 9 -11 6 -25 -2
-15 0 -25 7 -25 8 0 7 -7 -3 -21 -8 -12 -12 -28 -9 -35 3 -8 -1 -21 -8 -30
-10 -13 -10 -17 0 -24 9 -5 10 -10 3 -14 -6 -4 -9 -13 -5 -21 3 -9 0 -21 -5
-28 -7 -8 -7 -18 -2 -27 5 -8 6 -18 4 -22 -3 -5 -8 -37 -10 -71 -6 -66 -10
-102 -14 -102 -1 0 -2 -19 -3 -42 -1 -23 -5 -45 -9 -49 -4 -3 -3 -15 3 -26 7
-13 7 -23 0 -32 -6 -8 -9 -20 -5 -29 3 -8 0 -18 -6 -22 -6 -4 -8 -15 -5 -25 3
-10 -1 -25 -10 -33 -10 -11 -12 -18 -4 -23 7 -4 8 -20 5 -43 -4 -20 -9 -58
-11 -86 -8 -90 -25 -200 -35 -217 -6 -11 -5 -18 3 -22 9 -3 7 -9 -5 -18 -19
-16 -60 -12 -233 21 -120 24 -157 27 -195 17 l-26 -7 37 254 c85 587 139 1141
181 1857 18 295 18 1658 0 1955 -55 937 -143 1710 -282 2482 -29 162 -36 219
-27 223 46 18 615 198 629 199 15 1 17 -9 15 -73z m-952 -236 c4 -6 1 -17 -5
-25 -6 -8 -9 -18 -6 -24 3 -5 0 -12 -6 -14 -10 -4 -10 -8 1 -15 7 -5 11 -14 7
-20 -3 -5 0 -15 8 -21 8 -7 13 -31 12 -66 -1 -34 3 -55 10 -55 6 0 11 -6 12
-12 0 -7 3 -30 5 -50 2 -21 0 -38 -4 -38 -5 0 0 -9 10 -19 12 -12 17 -27 14
-40 -3 -13 -1 -21 7 -21 7 0 10 -7 6 -17 -4 -9 -1 -20 6 -25 10 -6 10 -10 -2
-18 -13 -8 -13 -11 -1 -19 7 -5 11 -13 7 -19 -3 -5 0 -27 8 -48 7 -22 14 -57
15 -79 2 -22 3 -48 4 -57 1 -10 6 -18 12 -18 5 0 11 -26 12 -57 2 -31 7 -59
12 -62 5 -3 8 -19 8 -36 -1 -16 3 -50 8 -75 4 -25 9 -62 9 -82 1 -21 5 -38 10
-38 4 0 6 -16 4 -35 -2 -19 -1 -36 2 -37 4 -2 10 -15 14 -30 4 -20 2 -28 -6
-28 -11 0 -10 -2 0 -8 7 -5 14 -23 15 -40 1 -18 6 -32 11 -32 5 0 3 -7 -4 -15
-10 -12 -10 -18 1 -32 8 -9 13 -24 11 -35 -2 -10 3 -18 10 -18 10 0 9 -3 -2
-11 -11 -8 -12 -12 -3 -16 8 -3 11 -14 7 -28 -3 -12 -1 -26 5 -29 17 -11 13
-26 -6 -26 -15 0 -15 -1 1 -13 14 -11 19 -28 20 -83 0 -38 5 -72 9 -75 5 -3
11 -37 14 -75 11 -148 19 -220 27 -232 3 -6 1 -14 -5 -18 -8 -5 -8 -9 1 -14 8
-5 13 -31 14 -69 0 -34 4 -61 9 -61 5 0 4 -7 -3 -15 -9 -11 -9 -15 -1 -15 7 0
10 -13 8 -35 -3 -20 0 -38 4 -41 5 -3 8 -26 7 -52 -1 -39 7 -144 13 -162 4
-14 -4 -46 -15 -52 -7 -5 -5 -8 7 -8 10 0 17 -8 17 -18 0 -10 5 -23 12 -30 8
-8 8 -12 1 -12 -6 0 -13 -11 -15 -25 -3 -14 -1 -25 4 -25 5 0 8 -21 6 -47 -2
-34 2 -52 12 -60 12 -9 13 -14 3 -24 -15 -16 -17 -46 -3 -51 7 -2 7 -14 1 -36
-7 -21 -6 -32 1 -32 6 0 8 -13 6 -30 -3 -16 0 -30 5 -30 5 0 4 -6 -2 -14 -10
-11 -9 -16 4 -23 15 -9 15 -11 1 -23 -12 -9 -13 -16 -5 -26 9 -11 12 -54 9
-134 0 -8 1 -31 3 -50 2 -19 -1 -41 -6 -47 -6 -9 -4 -15 7 -19 19 -7 21 -35 4
-52 -10 -10 -10 -15 -1 -20 14 -9 5 -62 -11 -62 -6 0 -3 -7 8 -15 13 -10 17
-21 12 -39 -4 -17 -2 -26 5 -26 7 0 8 -7 4 -17 -10 -25 -13 -63 -6 -63 8 0 6
-93 -2 -107 -4 -7 -4 -14 1 -17 5 -3 9 -67 10 -143 1 -76 3 -195 5 -265 2 -71
0 -128 -5 -128 -4 0 -4 -10 0 -22 9 -27 8 -111 -2 -126 -3 -6 -2 -14 4 -17 8
-5 7 -12 -2 -23 -11 -12 -11 -16 0 -20 9 -3 10 -7 2 -17 -7 -8 -7 -15 -1 -19
5 -3 7 -18 5 -34 -8 -53 -10 -158 -3 -195 3 -20 3 -40 -1 -42 -4 -3 -7 -30 -5
-62 1 -31 -1 -71 -5 -89 -5 -22 -4 -35 4 -38 7 -3 8 -7 1 -13 -6 -4 -10 -55
-10 -113 1 -58 -1 -109 -4 -115 -3 -5 -6 -38 -7 -73 -1 -34 -7 -69 -14 -76 -8
-11 -8 -15 1 -18 12 -4 13 -23 8 -115 -2 -35 -7 -63 -12 -63 -5 0 -4 -7 4 -16
8 -10 9 -18 3 -22 -6 -4 -10 -31 -9 -60 0 -29 -3 -56 -7 -58 -5 -3 -4 -12 2
-19 7 -8 7 -15 1 -19 -5 -4 -7 -28 -5 -55 3 -35 0 -54 -9 -63 -11 -9 -11 -17
-4 -30 8 -12 8 -24 0 -41 -7 -16 -8 -28 -2 -34 6 -6 6 -20 -1 -37 -5 -15 -7
-32 -4 -38 4 -6 -1 -17 -10 -23 -15 -11 -15 -13 -1 -19 9 -3 13 -11 10 -17 -4
-6 -8 -23 -10 -37 -10 -103 -18 -148 -28 -154 -9 -6 -8 -8 1 -8 9 0 11 -14 7
-52 -7 -70 -10 -86 -17 -93 -3 -4 -2 -21 3 -38 5 -17 5 -33 1 -36 -4 -4 -8
-31 -10 -61 -2 -30 -8 -58 -15 -62 -15 -9 -89 -8 -102 2 -5 4 -30 10 -55 13
-25 3 -71 10 -102 16 -35 6 -69 6 -88 1 l-32 -9 6 47 c22 191 14 1197 -15
1702 -27 475 -90 1166 -100 1086 -3 -28 -11 -52 -17 -54 -17 -5 -15 -22 4 -22
8 0 12 -5 9 -10 -4 -6 -11 -8 -16 -5 -5 4 -9 -1 -9 -9 0 -10 6 -13 18 -9 14 5
14 2 -4 -16 -17 -18 -19 -30 -14 -76 8 -74 5 -759 -3 -773 -4 -5 -1 -13 5 -15
9 -4 9 -8 3 -14 -6 -4 -10 -57 -10 -118 0 -60 -3 -115 -8 -122 -4 -6 -3 -14 3
-18 8 -5 8 -11 -1 -21 -9 -11 -9 -14 1 -14 8 0 10 -7 5 -17 -4 -10 -9 -72 -12
-138 -3 -80 -9 -125 -18 -135 -11 -13 -11 -17 1 -28 8 -7 12 -17 10 -21 -3 -4
-8 -61 -11 -127 -4 -65 -12 -125 -18 -132 -8 -10 -7 -16 2 -22 8 -4 10 -13 6
-20 -5 -8 -10 -54 -11 -104 -2 -50 -6 -109 -9 -131 -6 -45 -14 -121 -19 -180
-3 -22 -7 -60 -11 -85 -4 -25 -7 -70 -8 -100 -1 -30 -6 -61 -10 -67 -5 -7 -5
-18 -2 -23 4 -6 1 -17 -5 -25 -7 -8 -8 -15 -3 -15 11 0 4 -78 -8 -85 -10 -7
-140 15 -154 25 -5 5 -32 7 -58 6 -26 -2 -50 0 -52 4 -3 5 -25 7 -50 5 -41 -2
-44 -1 -40 19 27 120 96 975 115 1426 13 305 13 1179 0 1480 -45 1043 -183
2133 -387 3058 -20 89 -34 164 -32 165 12 9 372 118 375 114 12 -11 22 -67 13
-67 -6 0 -7 -6 -2 -12 4 -7 6 -21 5 -30 -2 -10 2 -18 8 -18 6 0 8 -10 4 -24
-4 -16 -1 -25 11 -30 10 -3 15 -12 11 -21 -3 -8 -1 -17 5 -20 5 -4 6 -11 3
-17 -4 -6 1 -17 10 -24 14 -10 15 -16 6 -33 -6 -12 -7 -21 -1 -21 12 0 42
-100 34 -113 -3 -6 1 -15 10 -22 9 -6 18 -26 19 -43 1 -19 8 -32 15 -32 11 0
11 -5 3 -21 -8 -13 -8 -24 -2 -32 6 -7 16 -31 23 -54 6 -24 15 -43 18 -43 3 0
7 -18 8 -41 2 -22 10 -55 19 -74 9 -19 13 -38 10 -43 -3 -5 2 -21 10 -37 8
-15 12 -30 10 -33 -3 -2 0 -15 5 -29 6 -18 6 -30 -2 -39 -9 -11 -8 -14 4 -14
19 0 30 -26 29 -72 0 -25 4 -38 12 -38 9 0 12 -9 8 -25 -2 -15 0 -25 7 -25 8
0 9 -5 2 -19 -8 -14 -7 -22 3 -30 8 -7 12 -21 9 -32 -4 -15 -2 -18 12 -13 15
6 16 4 6 -13 -9 -17 -7 -22 6 -28 13 -5 14 -8 5 -14 -14 -9 -6 -61 9 -61 5 0
9 -7 9 -15 0 -8 -6 -15 -12 -15 -8 0 -9 -3 -3 -8 19 -14 34 -50 28 -71 -3 -13
-1 -21 7 -21 8 0 10 -8 7 -22 -4 -12 -1 -28 5 -36 7 -7 13 -36 15 -64 1 -28 7
-56 13 -63 5 -6 7 -14 5 -17 -3 -3 0 -18 6 -34 7 -16 11 -39 10 -51 -1 -13 3
-23 9 -23 6 0 11 -10 10 -22 -1 -13 -1 -25 0 -28 5 -15 13 -69 14 -97 0 -18 6
-33 12 -33 5 0 10 -16 11 -35 1 -20 -4 -35 -10 -35 -7 0 -6 -4 2 -9 8 -5 11
-16 8 -25 -4 -10 -1 -19 8 -22 8 -4 12 -10 9 -15 -3 -6 -1 -16 5 -23 6 -7 9
-21 5 -30 -3 -9 -2 -16 3 -16 5 0 7 -14 5 -32 -3 -22 0 -35 14 -45 10 -7 13
-13 7 -13 -6 0 -9 -18 -8 -42 1 -24 -2 -46 -9 -50 -6 -4 2 -8 18 -8 24 0 27
-2 16 -15 -10 -12 -9 -16 5 -21 16 -6 15 -9 -6 -26 -13 -10 -18 -17 -11 -16
16 4 42 -65 35 -93 -4 -15 -2 -18 11 -13 21 8 22 -22 1 -42 -8 -9 -15 -21 -15
-27 0 -7 7 -3 15 7 19 25 22 21 33 -39 17 -90 13 -2 -13 285 -73 785 -177
1485 -327 2195 -28 132 -51 246 -52 254 -1 10 52 32 174 72 192 63 196 64 205
49z m-1202 -431 c-11 -14 -11 -18 2 -29 13 -11 13 -15 3 -22 -11 -6 -11 -10 0
-16 7 -5 10 -16 6 -25 -4 -12 -2 -16 7 -12 10 4 14 -3 15 -22 1 -40 11 -102
24 -146 6 -22 9 -46 6 -54 -4 -9 1 -21 11 -29 16 -12 16 -15 3 -24 -11 -7 -12
-12 -3 -18 6 -4 10 -22 9 -39 -1 -21 3 -34 13 -38 11 -4 12 -8 3 -17 -17 -17
-15 -28 4 -28 12 0 14 -3 6 -13 -7 -8 -7 -18 -2 -27 6 -8 10 -34 10 -57 0 -23
4 -43 9 -45 8 -3 20 -80 25 -158 1 -14 5 -31 10 -38 4 -8 10 -43 13 -79 2 -36
10 -75 18 -86 11 -15 12 -24 3 -34 -6 -8 -7 -18 -1 -25 5 -7 9 -22 8 -33 0
-11 3 -28 7 -37 5 -10 3 -20 -3 -24 -9 -5 -7 -11 5 -20 15 -10 16 -18 8 -48
-8 -28 -8 -36 3 -36 9 0 12 -14 11 -50 -2 -27 1 -50 5 -50 5 0 4 -11 -1 -25
-8 -20 -6 -25 6 -25 10 0 15 -8 13 -22 -1 -13 1 -43 5 -68 4 -25 8 -67 10 -93
1 -27 8 -52 15 -57 10 -6 10 -9 1 -15 -8 -5 -10 -19 -5 -41 4 -24 2 -34 -7
-34 -9 0 -9 -3 2 -10 16 -10 16 -13 24 -125 2 -38 6 -77 9 -85 8 -22 17 -132
21 -232 1 -48 6 -91 10 -95 3 -4 -4 -13 -16 -20 -22 -12 -22 -12 -2 -13 18 0
22 -8 27 -60 4 -32 4 -67 0 -76 -4 -12 -3 -15 5 -10 7 4 12 3 12 -3 0 -5 -5
-13 -10 -16 -7 -4 -7 -12 0 -25 6 -10 9 -37 7 -60 -2 -23 1 -44 6 -47 6 -3 2
-12 -8 -19 -17 -12 -17 -14 -1 -20 15 -6 16 -8 1 -24 -15 -16 -14 -18 4 -23
17 -4 18 -9 11 -43 -5 -21 -6 -41 -2 -44 4 -3 8 -39 8 -80 1 -41 3 -100 5
-130 1 -31 0 -61 -4 -67 -4 -7 -3 -14 2 -17 5 -3 8 -53 8 -111 0 -58 2 -108 6
-111 3 -3 3 -21 0 -39 -3 -18 0 -42 6 -54 7 -11 8 -21 4 -21 -10 0 -9 -177 0
-186 4 -4 1 -16 -4 -27 -8 -14 -8 -22 2 -28 10 -6 10 -11 0 -22 -8 -11 -9 -16
-1 -19 7 -2 8 -12 3 -28 -4 -14 -8 -159 -8 -322 0 -246 -2 -298 -14 -298 -10
0 -11 -3 -3 -13 13 -16 11 -229 -3 -240 -6 -6 -6 -10 3 -14 6 -2 9 -10 5 -16
-3 -6 -8 -54 -10 -106 -5 -181 -10 -251 -16 -258 -4 -3 -2 -12 4 -20 8 -9 8
-17 1 -26 -6 -7 -13 -55 -14 -105 -2 -51 -5 -92 -9 -92 -3 0 -4 -24 -4 -52 1
-29 -2 -59 -8 -65 -6 -9 -5 -18 2 -27 10 -12 9 -20 -4 -39 -9 -14 -12 -27 -6
-29 16 -5 0 -58 -18 -58 -14 -1 -14 -2 2 -11 9 -6 15 -15 11 -20 -3 -6 -8 -38
-10 -72 -8 -154 -27 -269 -45 -276 -5 -1 -3 -8 6 -15 14 -10 14 -14 2 -31 -13
-17 -19 -18 -67 -7 -28 7 -66 12 -84 12 -17 0 -37 5 -42 10 -17 17 -196 30
-224 17 -14 -7 -14 8 1 140 147 1268 144 2651 -7 3943 -64 552 -141 1013 -285
1703 -6 31 -10 59 -8 60 2 2 103 35 224 73 l220 70 6 -26 c3 -14 0 -32 -8 -41z
m-623 -163 c0 -13 -4 -26 -10 -28 -5 -2 -6 -17 -1 -40 5 -22 5 -40 -1 -46 -7
-7 -3 -12 11 -17 22 -7 28 -34 10 -52 -7 -7 -6 -15 4 -25 8 -8 17 -33 21 -57
3 -23 8 -46 11 -52 4 -5 -2 -10 -12 -10 -17 -1 -17 -2 0 -6 11 -3 16 -11 13
-19 -3 -7 -1 -16 5 -20 6 -3 8 -12 5 -20 -3 -7 -1 -16 3 -19 14 -8 19 -55 7
-55 -6 0 -4 -6 4 -13 9 -7 15 -24 13 -42 -1 -16 3 -35 9 -42 6 -7 7 -13 3 -13
-4 0 -2 -7 5 -15 7 -9 8 -15 2 -15 -5 0 -8 -9 -5 -20 3 -11 8 -20 12 -20 3 0
5 -19 5 -42 -1 -24 3 -48 7 -54 5 -6 8 -22 8 -35 -1 -13 3 -37 10 -53 8 -20 8
-32 1 -41 -7 -9 -6 -16 3 -23 7 -6 12 -25 11 -42 -1 -16 2 -32 7 -35 4 -3 6
-12 3 -19 -3 -8 -1 -17 5 -21 6 -3 8 -17 5 -31 -3 -13 -2 -30 3 -37 6 -6 10
-36 9 -64 -1 -29 2 -53 6 -53 5 0 8 -9 8 -21 0 -11 5 -30 11 -42 9 -16 9 -22
0 -25 -6 -2 -8 -8 -5 -14 13 -21 13 -78 1 -78 -7 0 -5 -5 5 -10 10 -6 16 -23
16 -46 0 -20 6 -41 14 -46 10 -7 10 -11 1 -15 -14 -5 -8 -50 8 -67 5 -5 3 -16
-4 -24 -10 -12 -9 -16 2 -20 9 -3 10 -6 2 -12 -9 -5 -9 -14 -1 -34 5 -15 8
-32 4 -37 -3 -5 -1 -9 4 -9 5 0 9 -20 8 -45 -1 -25 2 -45 6 -45 3 0 6 -21 6
-47 0 -27 2 -64 6 -83 3 -19 8 -66 11 -105 11 -163 16 -211 21 -228 3 -10 0
-24 -6 -32 -10 -12 -9 -15 5 -15 13 0 15 -3 6 -13 -6 -8 -9 -16 -6 -19 9 -9
27 -249 29 -380 0 -54 4 -98 9 -98 12 0 8 -45 -5 -58 -10 -10 -10 -14 -1 -20
9 -6 13 -45 13 -133 0 -114 6 -304 10 -304 5 0 3 -206 -3 -211 -3 -3 -2 -16 3
-28 8 -22 5 -80 -5 -97 -4 -5 1 -9 10 -9 11 0 13 -4 8 -12 -4 -7 -9 -62 -10
-123 -1 -60 -2 -110 -3 -110 -1 0 -3 -10 -4 -22 -2 -13 0 -23 4 -23 4 0 6 -17
4 -37 -2 -21 -4 -38 -4 -38 -3 0 -10 -235 -11 -340 -1 -44 -6 -86 -11 -92 -6
-7 -7 -21 -3 -30 5 -10 7 -22 6 -26 -1 -5 -4 -56 -7 -115 -6 -126 -13 -219
-19 -282 -7 -59 -7 -73 -4 -85 2 -6 -1 -35 -5 -65 -5 -30 -8 -61 -7 -69 1 -8
-3 -17 -10 -21 -7 -5 -8 -13 -3 -21 11 -19 13 -49 2 -55 -4 -3 -6 -10 -2 -15
3 -6 2 -18 -2 -27 -4 -9 -8 -46 -9 -82 -1 -36 -5 -72 -8 -80 -3 -8 -9 -51 -12
-95 -3 -44 -7 -98 -8 -120 l-3 -40 -65 4 c-35 2 -66 7 -69 11 -3 4 -35 10 -71
13 -36 3 -77 11 -91 18 -21 9 -30 8 -52 -6 -26 -17 -26 -17 -26 11 0 16 9 112
20 214 97 925 116 1911 54 2840 -18 261 -41 505 -43 448 -1 -23 -6 -38 -13
-38 -9 0 -10 -2 -2 -8 6 -4 13 -33 16 -66 4 -51 2 -59 -14 -64 -14 -3 -16 -8
-8 -17 7 -9 7 -15 1 -19 -5 -4 -8 -19 -6 -34 2 -15 4 -31 4 -36 1 -6 8 -1 16
10 8 10 15 13 15 7 0 -7 -8 -18 -19 -24 -15 -10 -17 -19 -11 -46 5 -18 4 -36
-1 -39 -5 -3 -6 -10 -3 -16 10 -16 11 -228 1 -228 -5 0 -5 -6 1 -12 6 -7 10
-47 10 -88 -1 -41 0 -95 0 -120 3 -103 -5 -320 -11 -327 -4 -3 -3 -11 3 -17 5
-7 5 -27 0 -49 -4 -22 -4 -39 1 -43 5 -3 7 -10 3 -15 -6 -11 -17 -220 -17
-351 -1 -43 -4 -78 -8 -78 -4 0 -5 -16 -2 -35 4 -24 2 -35 -7 -35 -10 0 -10
-3 1 -16 10 -13 10 -17 -2 -25 -10 -7 -11 -11 -2 -17 8 -5 9 -19 4 -43 -4 -19
-7 -51 -6 -70 1 -18 -2 -46 -7 -62 -7 -19 -7 -32 1 -41 6 -7 8 -16 4 -19 -7
-7 -10 -31 -15 -102 -3 -36 -5 -40 -28 -37 l-25 3 24 -13 c25 -13 36 -45 22
-63 -5 -5 -9 -30 -11 -55 -3 -61 -6 -94 -10 -100 -1 -3 -4 -25 -5 -50 -6 -93
-16 -164 -26 -176 -7 -8 -6 -14 1 -19 6 -3 8 -11 4 -16 -3 -6 -8 -34 -10 -64
-5 -72 -7 -78 -24 -92 -13 -11 -13 -12 4 -13 13 0 16 -5 11 -17 -6 -17 -15
-71 -20 -123 -1 -14 -3 -25 -5 -25 -1 0 -3 -22 -5 -50 -1 -27 -4 -52 -5 -55
-3 -6 -4 -8 -14 -77 -4 -29 -12 -56 -17 -59 -6 -3 -5 -11 2 -20 9 -11 9 -17 0
-28 -6 -8 -11 -18 -9 -22 4 -16 -14 -94 -23 -99 -5 -4 -50 1 -100 11 -72 13
-96 14 -116 5 l-26 -12 6 103 c4 57 12 191 19 298 16 264 16 1273 0 1555 -31
530 -109 1323 -133 1349 -6 6 -9 3 -9 -7 0 -9 -5 -17 -11 -17 -5 0 -7 -5 -4
-10 4 -6 11 -8 16 -5 5 4 9 -5 9 -18 0 -14 -6 -27 -14 -30 -16 -6 -10 -58 6
-54 6 1 13 -4 15 -12 4 -9 0 -11 -16 -6 -17 5 -21 2 -21 -14 0 -11 5 -23 10
-26 6 -3 10 -1 10 4 0 6 5 11 10 11 6 0 10 -7 10 -15 0 -8 -6 -15 -14 -15 -10
0 -14 -10 -14 -30 1 -29 18 -56 18 -29 0 7 3 9 6 6 4 -4 1 -13 -6 -22 -8 -10
-9 -15 -1 -15 19 0 12 -18 -10 -25 -16 -5 -18 -10 -8 -21 6 -7 9 -21 5 -29 -3
-8 0 -15 7 -15 8 0 8 -3 -2 -9 -9 -6 -10 -11 -2 -15 6 -4 9 -11 6 -16 -3 -5
-1 -11 5 -15 6 -4 8 -10 5 -15 -9 -14 -14 -90 -6 -95 7 -4 9 -53 15 -305 1
-53 5 -101 9 -107 4 -6 3 -14 -2 -18 -7 -4 -7 -15 0 -32 6 -17 6 -30 -1 -38
-5 -6 -8 -14 -5 -17 3 -3 6 -54 7 -114 0 -60 5 -114 9 -120 5 -5 2 -22 -6 -37
-8 -15 -10 -27 -5 -27 4 0 8 -16 7 -35 -1 -19 -5 -35 -10 -35 -6 0 -6 -5 0
-12 10 -14 9 -89 -1 -106 -3 -6 -2 -14 4 -17 7 -5 8 -11 1 -19 -6 -7 -7 -26
-1 -51 5 -21 6 -43 4 -47 -3 -5 -8 -73 -10 -151 -2 -78 -6 -161 -8 -185 -3
-25 -1 -40 5 -37 5 4 5 -3 0 -18 -6 -14 -7 -28 -4 -31 4 -3 -2 -6 -13 -6 -17
-1 -17 -2 -3 -10 13 -7 15 -21 11 -62 -2 -29 -9 -59 -14 -65 -7 -9 -7 -13 0
-13 12 0 13 -39 1 -55 -4 -6 -4 -27 0 -47 5 -21 7 -39 4 -42 -5 -4 -15 -104
-17 -163 -1 -18 -5 -33 -10 -33 -6 0 -6 -4 0 -10 11 -11 -4 -124 -19 -147 -5
-8 -4 -13 2 -13 14 0 14 -37 1 -45 -5 -3 -6 -15 -1 -28 5 -14 5 -30 -1 -40 -5
-9 -6 -22 -3 -27 3 -6 2 -10 -4 -10 -6 0 -8 -7 -5 -15 4 -8 1 -22 -6 -30 -9
-11 -9 -15 -1 -15 14 0 6 -77 -11 -97 -8 -10 -8 -17 0 -25 7 -7 7 -19 0 -39
-6 -17 -8 -41 -6 -54 6 -29 -12 -38 -48 -25 -14 6 -37 7 -51 4 -16 -4 -24 -3
-20 3 4 5 -26 15 -71 23 -89 15 -127 17 -163 6 l-25 -7 18 158 c21 190 53 566
70 833 18 265 17 1377 0 1645 -53 825 -151 1554 -301 2258 -20 98 -34 180 -29
183 4 3 126 42 270 88 145 46 273 86 284 90 18 5 22 2 26 -18 3 -14 0 -30 -6
-36 -8 -8 -7 -13 4 -20 13 -9 13 -11 0 -20 -10 -6 -11 -10 -2 -10 6 0 12 -11
12 -25 0 -16 6 -25 15 -25 13 0 14 -4 4 -21 -8 -16 -8 -28 0 -45 6 -13 8 -30
5 -38 -3 -9 3 -17 16 -21 18 -6 19 -9 8 -22 -10 -12 -9 -17 5 -28 18 -13 24
-31 7 -20 -5 3 -10 1 -10 -4 0 -6 4 -11 10 -11 5 0 9 -16 8 -35 -1 -20 4 -41
10 -47 7 -7 12 -22 12 -34 0 -13 4 -25 10 -29 5 -3 7 -12 3 -20 -3 -8 -2 -23
2 -33 12 -25 16 -45 16 -64 0 -10 4 -18 8 -18 5 0 7 -11 6 -25 -3 -24 14 -85
26 -95 3 -3 7 -23 8 -45 1 -22 2 -52 3 -67 0 -16 7 -28 14 -28 17 0 19 -26 3
-36 -8 -5 -8 -9 1 -14 11 -7 19 -43 23 -102 1 -10 5 -18 10 -18 5 0 7 -12 6
-28 -2 -15 -1 -32 2 -37 3 -6 6 -23 7 -38 1 -15 6 -36 11 -46 6 -10 7 -28 4
-41 -4 -13 -2 -21 3 -17 5 3 10 -2 11 -11 2 -48 12 -110 21 -132 6 -15 6 -29
0 -37 -5 -7 -5 -12 1 -15 8 -3 18 -64 20 -125 1 -15 7 -23 18 -23 12 0 14 -3
6 -11 -7 -7 -8 -23 -3 -45 5 -19 6 -43 3 -54 -3 -13 0 -20 8 -20 11 0 11 -2
-1 -10 -13 -9 -13 -12 3 -21 14 -8 15 -14 7 -24 -8 -9 -7 -17 3 -26 7 -8 13
-36 12 -67 0 -30 3 -56 8 -59 4 -2 4 -15 1 -29 -3 -13 -1 -31 6 -39 6 -8 9
-23 5 -34 -4 -13 0 -23 12 -30 10 -6 13 -11 6 -11 -15 0 -10 -53 6 -58 14 -5
15 -42 1 -42 -5 0 -10 -4 -10 -10 0 -5 10 -10 23 -10 16 0 18 -3 8 -9 -9 -6
-10 -11 -2 -15 16 -10 13 -36 -4 -36 -8 0 -15 -4 -15 -9 0 -5 8 -8 18 -7 13 1
18 -9 23 -44 l6 -45 1 55 c1 30 -3 152 -8 270 -31 656 -91 1232 -191 1855 -22
138 -41 258 -42 268 -2 16 40 32 273 107 151 49 283 89 293 89 12 1 17 -6 17
-23z m-1724 -531 c3 -8 -1 -28 -10 -45 -14 -30 -14 -31 5 -25 18 6 19 5 10
-14 -9 -16 -8 -26 5 -46 13 -20 13 -25 3 -25 -9 -1 -5 -8 10 -20 18 -16 22
-27 18 -50 -4 -16 -2 -32 4 -36 6 -3 8 -19 5 -35 -5 -24 -2 -29 14 -29 11 0
20 -5 20 -11 0 -5 -5 -7 -12 -3 -8 5 -9 2 -4 -11 4 -11 10 -40 13 -65 3 -25
10 -48 15 -51 5 -3 10 -16 11 -27 1 -12 5 -22 9 -22 4 0 8 -7 8 -15 0 -8 -6
-15 -12 -15 -10 0 -9 -3 1 -9 8 -5 11 -16 7 -29 -4 -11 -2 -23 4 -27 5 -3 10
-17 10 -30 0 -13 6 -26 13 -28 9 -4 8 -8 -3 -16 -12 -8 -12 -11 3 -17 17 -6
17 -7 0 -26 -17 -19 -17 -20 2 -17 16 3 20 -1 18 -23 -1 -16 2 -28 6 -28 4 0
8 -16 9 -36 1 -20 5 -41 10 -48 4 -6 9 -36 11 -66 1 -30 7 -59 12 -64 5 -6 4
-15 -2 -23 -9 -10 -7 -13 6 -13 11 0 15 -5 11 -16 -3 -8 1 -23 10 -32 15 -15
15 -16 -2 -22 -17 -6 -17 -7 1 -18 12 -7 15 -12 6 -12 -11 0 -11 -3 -1 -15 7
-8 9 -15 5 -15 -4 0 -2 -6 4 -14 6 -7 9 -20 5 -29 -3 -8 -1 -18 5 -22 19 -11
12 -25 -11 -26 l-23 0 23 -11 c24 -12 39 -49 27 -68 -4 -6 -2 -16 3 -23 13
-17 23 -117 11 -117 -5 0 -2 -11 7 -25 9 -14 17 -39 19 -56 1 -17 8 -35 16
-40 8 -5 9 -9 3 -9 -15 0 -9 -76 10 -121 8 -20 12 -39 9 -43 -11 -11 -9 -55 3
-60 9 -3 10 -16 4 -41 -6 -28 -5 -38 6 -42 11 -4 12 -9 3 -19 -9 -11 -8 -14 5
-14 10 0 14 -5 10 -11 -11 -19 -6 -71 8 -80 7 -5 8 -9 2 -9 -6 0 -10 -10 -8
-22 1 -13 3 -29 3 -35 1 -7 8 -13 17 -13 13 0 14 -2 1 -14 -16 -17 -14 -71 4
-92 9 -11 8 -14 -1 -14 -10 0 -10 -3 0 -15 7 -8 10 -21 7 -29 -3 -7 -2 -30 3
-49 5 -23 4 -39 -3 -46 -8 -8 -8 -11 1 -11 7 0 12 -13 11 -32 -2 -68 9 -148
21 -163 7 -9 8 -15 2 -15 -12 0 -4 -103 8 -108 4 -2 4 -18 0 -36 -4 -19 -4
-40 1 -47 4 -7 5 -17 2 -21 -2 -5 1 -15 7 -23 7 -8 8 -15 3 -15 -8 0 -10 -88
-2 -97 7 -10 3 -69 -6 -75 -7 -6 -6 -10 1 -15 14 -10 24 -73 11 -73 -6 0 -5
-5 1 -12 11 -14 10 -47 -2 -66 -4 -7 -1 -12 8 -12 17 0 22 -15 8 -24 -7 -4 -9
-101 -2 -101 0 0 3 -87 5 -194 2 -106 6 -196 9 -199 3 -3 1 -11 -5 -18 -7 -8
-7 -14 1 -19 6 -4 2 -14 -12 -25 l-23 -19 23 6 c21 5 22 3 16 -28 -10 -54 -10
-83 0 -97 5 -7 6 -15 3 -19 -4 -3 -2 -14 4 -24 6 -11 6 -19 0 -19 -5 0 -9 -10
-9 -22 -2 -81 -6 -124 -14 -134 -5 -7 -3 -14 5 -17 10 -4 12 -19 9 -54 -3 -26
-5 -78 -5 -115 0 -38 -5 -68 -10 -68 -6 0 -6 -5 -1 -12 8 -11 11 -81 4 -98 -1
-5 -11 -242 -11 -285 0 -11 -4 -35 -9 -52 -5 -19 -5 -33 0 -33 5 0 7 -7 3 -16
-4 -12 -14 -14 -42 -9 -20 4 -52 9 -71 11 -90 11 -226 38 -234 45 -15 14 -44
11 -73 -8 l-26 -17 6 94 c21 306 36 560 39 665 2 66 7 123 12 127 6 4 -2 12
-17 19 -15 7 -23 17 -20 23 4 6 -1 5 -10 -2 -9 -8 -21 -11 -27 -7 -19 12 -120
-5 -120 -20 0 -7 -7 -25 -14 -41 -10 -17 -12 -33 -6 -43 5 -9 5 -23 0 -32 -5
-9 -11 -60 -15 -115 -3 -54 -8 -112 -11 -129 -8 -46 -14 -86 -19 -130 -2 -22
-6 -58 -9 -80 -3 -22 -11 -82 -17 -132 -6 -51 -17 -97 -24 -103 -14 -12 -196
8 -206 22 -3 4 -36 9 -75 11 -38 1 -72 6 -76 12 -4 6 -21 6 -47 -1 -23 -6 -41
-8 -41 -3 0 4 13 90 30 191 203 1253 218 2582 44 3883 -28 212 -28 215 -53
362 -17 97 -17 106 -2 110 9 3 153 49 321 103 168 54 309 98 313 99 4 1 10 -6
13 -14z m-7399 -270 c59 -18 118 -68 129 -109 17 -71 -94 -93 -209 -42 -30 13
-76 43 -101 66 -54 50 -60 83 -18 99 34 13 131 7 199 -14z m6168 -124 c92 -46
255 -221 240 -258 -2 -8 0 -11 5 -8 12 7 60 -94 53 -112 -3 -8 2 -13 13 -13
16 0 16 -2 4 -10 -12 -8 -12 -10 2 -15 9 -4 15 -12 12 -19 -3 -7 1 -18 9 -24
16 -13 11 -62 -6 -62 -5 0 3 -10 18 -21 22 -18 26 -28 23 -60 -2 -22 0 -39 5
-39 5 0 7 -9 4 -20 -3 -10 2 -25 10 -31 11 -10 11 -14 1 -20 -8 -6 -9 -9 -2
-9 10 0 24 -52 27 -107 1 -13 6 -23 10 -23 5 0 6 -4 2 -9 -3 -5 -1 -13 5 -16
8 -5 8 -11 0 -20 -7 -9 -6 -16 5 -25 12 -10 13 -15 3 -28 -10 -12 -10 -16 -1
-19 9 -3 11 -14 7 -30 -4 -16 -3 -24 3 -20 5 3 10 -16 11 -46 1 -29 7 -83 13
-122 6 -38 11 -81 11 -95 0 -14 3 -29 7 -35 4 -5 7 -37 6 -70 -1 -33 3 -66 8
-72 6 -9 5 -13 -3 -13 -9 0 -9 -4 -2 -12 5 -7 8 -24 7 -38 -1 -14 1 -29 5 -35
4 -5 7 -25 8 -42 0 -18 1 -36 3 -40 6 -20 4 -39 -6 -45 -7 -6 -6 -10 1 -15 6
-5 10 -20 8 -35 -1 -16 2 -28 7 -28 5 0 9 -4 9 -9 0 -5 -21 -12 -47 -15 -66
-8 -82 -11 -89 -19 -11 -10 -44 -8 -44 2 0 6 -12 6 -32 0 -18 -5 -66 -11 -108
-14 -42 -3 -85 -12 -98 -21 -13 -9 -25 -14 -27 -12 -1 2 -10 91 -19 198 -32
368 -85 750 -122 879 -8 30 -16 67 -16 82 -1 21 -6 29 -20 29 -10 0 -18 5 -18
11 0 7 -11 8 -32 4 -32 -7 -67 -40 -68 -62 0 -7 -3 -13 -7 -13 -5 0 -8 -38 -9
-85 0 -48 3 -85 9 -85 5 0 6 -11 3 -24 -3 -14 -2 -36 4 -50 7 -18 6 -26 -1
-26 -8 0 -8 -4 -1 -12 5 -7 13 -52 17 -100 4 -49 11 -88 15 -88 5 0 5 -13 0
-30 -5 -18 -5 -32 1 -36 5 -3 7 -14 4 -24 -4 -11 1 -20 12 -24 15 -6 15 -8 3
-16 -12 -7 -12 -12 -3 -21 8 -8 9 -18 2 -31 -5 -10 -6 -18 -1 -18 4 0 9 -33
10 -72 2 -40 6 -74 11 -76 4 -1 4 -25 1 -53 -4 -34 -3 -48 4 -46 7 3 11 -18
12 -57 1 -54 4 -99 17 -298 2 -27 -1 -48 -5 -48 -4 0 -8 -4 -8 -10 0 -5 7 -10
16 -10 14 0 15 -2 3 -17 -14 -17 -14 -20 2 -40 7 -7 6 -14 -1 -18 -8 -5 -8
-11 0 -20 7 -8 9 -23 5 -35 -4 -12 -2 -20 5 -20 6 0 8 -5 4 -12 -10 -16 -11
-141 -2 -149 4 -3 3 -20 -2 -38 -5 -19 -7 -38 -3 -44 9 -15 10 -528 1 -555 -5
-15 -4 -21 2 -17 5 3 8 0 5 -7 -3 -7 -6 -72 -8 -143 -2 -72 -6 -136 -10 -142
-4 -6 -2 -13 4 -15 7 -2 7 -12 0 -31 -6 -15 -7 -27 -2 -27 4 0 7 -21 6 -46 0
-25 3 -48 7 -50 5 -3 4 -12 -3 -20 -8 -10 -8 -14 0 -14 6 0 11 -8 11 -17 0
-22 62 -73 89 -73 73 0 101 206 101 753 l0 307 98 0 c55 0 160 3 235 7 136 6
137 6 137 -16 0 -12 -6 -24 -13 -27 -10 -3 -13 -26 -13 -79 1 -41 -3 -75 -8
-75 -5 0 -1 -9 9 -20 10 -11 13 -20 7 -20 -8 0 -12 -24 -11 -76 1 -41 -1 -78
-4 -81 -3 -3 -2 -16 3 -29 5 -13 6 -24 2 -24 -5 0 -8 -33 -8 -72 -1 -87 -10
-213 -23 -322 -5 -44 -7 -85 -4 -93 3 -7 1 -13 -4 -13 -5 0 -8 -18 -8 -41 0
-22 -2 -42 -6 -45 -4 -2 -10 -25 -13 -51 -10 -73 -28 -147 -38 -160 -5 -7 -7
-17 -4 -22 7 -10 -12 -51 -28 -62 -5 -4 -6 -11 -2 -17 3 -5 -1 -15 -9 -22 -8
-7 -13 -16 -10 -20 6 -9 -24 -70 -34 -70 -4 0 -13 -16 -20 -35 -7 -19 -19 -35
-27 -35 -8 0 -13 -4 -9 -9 8 -13 -46 -89 -68 -97 -10 -3 -16 -8 -13 -11 9 -9
-46 -48 -105 -76 -61 -28 -156 -45 -186 -32 -10 5 -26 7 -35 6 -10 -1 -18 2
-18 7 0 5 -20 15 -44 21 -24 6 -49 17 -56 26 -7 8 -19 15 -26 15 -8 0 -14 3
-14 8 0 4 -14 15 -31 24 -17 10 -27 22 -24 28 3 5 -1 10 -9 10 -9 0 -16 6 -16
14 0 7 -8 16 -18 18 -26 7 -87 137 -115 248 -39 151 -46 277 -52 925 -6 790
-18 999 -92 1665 -63 561 -47 820 64 1048 41 84 124 180 187 217 107 63 243
69 351 16z m-1163 -385 c31 -15 79 -47 106 -71 50 -45 119 -141 109 -151 -3
-3 3 -14 14 -25 17 -17 24 -43 20 -75 -1 -7 6 -14 14 -18 13 -5 14 -10 4 -28
-8 -15 -9 -23 -1 -26 6 -2 8 -10 5 -18 -3 -8 2 -17 12 -20 13 -6 14 -9 3 -16
-10 -8 -10 -11 0 -15 6 -2 10 -9 6 -14 -3 -5 2 -12 11 -15 12 -5 13 -10 4 -20
-6 -7 -8 -18 -5 -23 4 -5 2 -12 -4 -16 -11 -7 12 -35 29 -35 6 0 4 -12 -4 -27
-13 -24 -13 -29 0 -36 8 -4 15 -15 15 -23 0 -10 -5 -12 -12 -8 -10 6 -10 4 -2
-7 6 -8 11 -25 12 -38 0 -13 5 -27 9 -30 4 -3 9 -28 10 -56 4 -61 10 -146 13
-160 1 -5 2 -19 1 -31 -1 -21 -14 -24 -235 -55 -49 -7 -104 -20 -122 -30 -33
-16 -33 -16 -38 10 -3 14 -10 67 -16 116 -15 117 -38 251 -52 295 -7 19 -11
43 -10 53 0 10 -6 21 -14 24 -7 3 -12 9 -9 13 7 12 -55 21 -74 10 -10 -5 -24
-17 -32 -26 -18 -22 -38 -121 -27 -132 5 -5 4 -21 -1 -35 -7 -18 -7 -28 0 -33
6 -3 8 -12 5 -20 -3 -8 0 -14 6 -14 6 0 8 -11 5 -30 -4 -16 -3 -30 2 -30 4 0
7 -16 5 -35 -1 -19 2 -35 7 -35 4 0 6 -7 3 -15 -4 -8 -1 -15 5 -15 6 0 11 -16
11 -35 0 -22 6 -38 15 -41 8 -4 15 -15 15 -25 0 -10 5 -19 10 -19 9 0 19 -18
31 -55 2 -5 10 -17 19 -25 30 -27 255 -274 297 -325 22 -27 66 -85 97 -129 45
-62 54 -81 45 -93 -9 -11 -9 -12 4 -7 11 4 22 -6 38 -38 12 -24 22 -45 21 -48
0 -3 7 -13 15 -22 11 -12 12 -18 4 -18 -8 0 -7 -5 3 -16 9 -8 16 -21 17 -27 0
-7 3 -21 5 -32 3 -11 5 -28 5 -37 0 -10 4 -18 8 -18 5 0 6 -11 3 -25 -3 -16 0
-25 8 -25 8 0 10 -9 6 -25 -4 -15 -2 -25 4 -25 6 0 8 -10 4 -25 -3 -14 -2 -31
4 -38 12 -15 19 -83 9 -93 -4 -4 -2 -13 4 -20 6 -8 7 -14 0 -18 -6 -4 -5 -20
4 -45 12 -34 11 -42 -3 -62 -8 -12 -10 -19 -4 -15 13 8 13 9 16 -117 2 -48 -1
-90 -6 -93 -4 -3 -5 -10 -2 -16 10 -16 2 -300 -12 -373 -3 -16 -6 -41 -8 -55
-2 -14 -4 -27 -6 -30 -1 -3 -1 -19 0 -37 1 -17 -6 -45 -15 -62 -9 -18 -13 -35
-10 -40 9 -16 -62 -221 -77 -221 -5 0 -8 -7 -8 -15 0 -8 -4 -15 -10 -15 -5 0
-10 -7 -10 -15 0 -8 -9 -19 -20 -25 -11 -6 -20 -16 -20 -23 0 -24 -123 -117
-154 -117 -8 0 -16 -5 -18 -12 -10 -28 -318 -8 -318 21 0 4 -18 15 -40 25 -22
10 -38 21 -35 26 3 5 -8 11 -25 15 -16 4 -29 10 -29 13 3 22 -3 32 -19 32 -20
0 -84 93 -115 165 -56 134 -67 247 -67 672 l0 353 220 0 c121 0 220 -4 220 -9
0 -4 -8 -19 -18 -32 -23 -30 -33 -55 -24 -64 8 -8 10 -245 2 -245 -3 0 -5 -22
-4 -50 0 -30 -4 -50 -10 -50 -6 0 -3 -5 6 -10 12 -8 15 -17 9 -38 -4 -15 -6
-44 -3 -66 3 -26 0 -41 -9 -47 -8 -5 -9 -9 -3 -9 7 0 15 -15 18 -32 9 -47 66
-100 102 -96 70 8 99 120 99 383 0 194 -11 268 -50 342 -13 24 -21 51 -18 59
4 10 0 12 -11 8 -10 -4 -16 -1 -16 8 0 8 -9 24 -20 36 -11 12 -20 26 -20 32 0
6 -7 13 -15 16 -8 4 -15 11 -15 17 0 6 -10 21 -22 34 -14 16 -17 23 -8 23 8 0
-3 15 -23 34 -20 18 -37 41 -37 50 0 9 -8 16 -20 16 -11 0 -20 5 -20 12 0 6
-7 20 -16 30 -13 14 -14 21 -5 32 9 11 7 15 -14 20 -36 9 -68 38 -53 47 8 5 3
11 -14 18 -31 12 -47 33 -29 39 8 3 4 9 -11 16 -12 7 -22 18 -20 25 1 7 -2 10
-7 7 -21 -13 -97 124 -139 249 -106 315 -173 970 -119 1165 55 201 170 337
336 397 56 20 80 23 161 20 78 -3 105 -8 152 -31z m-6108 -158 c61 -16 89 -30
114 -54 38 -38 39 -44 8 -81 -36 -43 -101 -58 -251 -58 -112 0 -138 3 -192 24
-67 25 -113 63 -113 92 0 25 62 70 118 85 77 21 224 17 316 -8z m-2016 -80
c43 -43 -28 -152 -128 -197 -54 -25 -81 -26 -120 -6 -36 19 -46 49 -26 80 26
40 86 93 129 114 46 23 126 28 145 9z m7212 -37 c0 -11 -4 -23 -10 -26 -6 -4
-5 -17 3 -38 7 -18 12 -45 12 -62 0 -16 4 -33 8 -36 4 -3 9 -24 10 -47 1 -30
6 -42 17 -42 13 0 13 -2 1 -9 -11 -7 -12 -13 -3 -23 6 -8 9 -24 5 -36 -3 -12
-1 -22 5 -22 5 0 8 -13 6 -30 -2 -16 1 -32 6 -35 5 -3 7 -12 3 -20 -3 -8 0
-15 6 -15 7 0 7 -8 0 -27 -7 -19 -6 -28 2 -34 7 -4 9 -14 6 -23 -4 -9 -2 -16
4 -16 7 0 10 -16 7 -40 -2 -24 1 -41 8 -44 8 -3 11 -20 8 -45 -2 -22 1 -43 7
-47 8 -4 7 -9 -2 -15 -11 -6 -10 -13 0 -36 14 -27 23 -105 25 -190 0 -24 3
-43 7 -43 3 0 7 -21 9 -47 1 -27 3 -62 4 -78 1 -17 5 -35 8 -41 4 -5 3 -27 -2
-48 -6 -29 -5 -39 6 -43 11 -4 12 -9 3 -19 -6 -8 -7 -14 -3 -14 5 0 10 -24 11
-52 1 -53 9 -185 15 -286 2 -29 0 -56 -5 -59 -4 -3 -6 -11 -3 -19 12 -32 17
-155 7 -168 -8 -10 -8 -16 2 -24 13 -11 15 -72 2 -91 -3 -6 -3 -11 2 -11 4 0
8 -39 7 -86 -1 -62 -5 -88 -15 -95 -11 -7 -11 -9 0 -9 9 0 11 -8 7 -26 -4 -15
-3 -23 3 -20 5 4 6 -9 0 -32 -4 -21 -6 -52 -4 -70 2 -17 -1 -34 -7 -38 -7 -4
-6 -9 2 -14 8 -5 9 -13 4 -21 -5 -8 -10 -50 -11 -94 -2 -70 -8 -140 -13 -155
-1 -3 -1 -15 0 -27 1 -13 -4 -23 -10 -23 -7 0 -9 -8 -5 -20 4 -12 2 -20 -5
-20 -6 0 -8 -5 -5 -10 9 -15 -24 -110 -51 -147 -13 -17 -24 -38 -24 -46 0 -23
-27 -70 -52 -89 -14 -10 -18 -18 -9 -18 8 0 4 -8 -10 -19 -13 -10 -30 -17 -39
-14 -13 4 -13 3 -1 -5 13 -9 11 -14 -10 -31 -13 -11 -30 -20 -36 -21 -7 0 -13
-4 -13 -8 0 -19 -79 -41 -150 -42 -93 -2 -184 8 -188 21 -2 5 -17 9 -33 9 -19
0 -29 5 -29 15 0 9 -9 15 -23 15 -13 0 -33 11 -45 25 -12 14 -29 25 -37 25 -8
0 -15 6 -15 14 0 7 -13 19 -30 26 -33 14 -60 40 -41 40 7 0 9 5 6 10 -3 6 -14
10 -24 10 -23 0 -61 71 -97 180 l-27 85 -8 515 c-9 595 -20 791 -70 1170 -25
194 -62 413 -99 595 -16 76 -28 140 -27 142 8 7 451 143 455 139 2 -3 1 -18
-3 -33 -10 -35 -6 -84 7 -100 6 -7 8 -19 5 -28 -4 -8 -1 -17 5 -21 7 -4 6 -9
-3 -15 -9 -5 -9 -9 -3 -9 16 0 25 -38 10 -44 -7 -3 -5 -9 6 -16 9 -6 15 -17
11 -25 -3 -9 0 -22 7 -30 8 -9 10 -29 7 -50 -4 -22 -2 -35 5 -35 7 0 7 -5 -1
-14 -9 -10 -8 -16 4 -26 11 -9 12 -17 4 -33 -9 -16 -8 -23 2 -31 8 -6 15 -24
15 -41 2 -62 9 -110 16 -116 4 -3 4 -19 -1 -36 -7 -25 -6 -33 6 -37 9 -4 12
-13 8 -26 -3 -11 -3 -20 2 -20 4 0 9 -11 9 -25 1 -14 -2 -25 -7 -25 -5 0 -5
-10 0 -22 4 -13 6 -29 3 -37 -3 -8 0 -11 7 -7 6 4 11 1 11 -8 0 -9 -5 -16 -11
-16 -8 0 -8 -5 1 -15 7 -8 10 -25 6 -38 -3 -13 1 -32 9 -45 14 -19 14 -22 -2
-31 -17 -9 -17 -10 0 -16 14 -6 15 -10 6 -21 -9 -11 -8 -14 1 -14 9 0 11 -13
8 -45 -3 -25 -2 -45 2 -45 3 0 5 -22 4 -50 -2 -28 1 -50 6 -50 18 0 10 -17
-12 -28 -18 -8 -19 -11 -5 -11 19 -1 18 9 22 -209 3 -123 1 -144 -13 -149 -13
-6 -13 -8 4 -13 17 -6 19 -18 20 -106 0 -54 -4 -105 -9 -111 -6 -8 -6 -18 0
-25 11 -15 9 -220 -2 -239 -4 -6 -2 -15 6 -19 10 -7 11 -14 0 -36 -9 -20 -9
-29 0 -34 8 -6 8 -9 -1 -15 -6 -4 -9 -13 -6 -21 3 -7 1 -16 -5 -20 -6 -4 -6
-11 1 -19 7 -9 9 -27 5 -45 -4 -20 -3 -30 5 -30 9 0 9 -4 -1 -16 -10 -13 -10
-17 1 -24 8 -5 12 -12 8 -15 -12 -12 59 -65 86 -65 21 0 30 7 41 33 23 55 35
254 35 587 0 638 -53 1171 -177 1787 -20 101 -35 184 -32 186 10 7 415 135
432 136 10 1 17 -6 17 -18z m-1385 -515 c83 -39 185 -166 185 -232 0 -12 7
-27 15 -34 13 -11 13 -15 3 -22 -10 -6 -10 -10 2 -18 12 -7 12 -12 3 -21 -10
-10 -10 -16 0 -27 20 -24 37 -106 24 -114 -8 -5 -6 -9 6 -14 12 -4 15 -10 7
-19 -5 -6 -8 -14 -6 -16 7 -7 18 -60 19 -96 1 -17 5 -34 8 -38 4 -3 3 -23 -2
-43 -5 -22 -4 -41 1 -46 6 -6 5 -15 -2 -24 -9 -10 -8 -16 3 -23 8 -5 9 -9 4
-9 -6 0 -11 -22 -11 -50 -1 -27 -7 -57 -15 -66 -7 -9 -14 -23 -16 -32 -1 -9
-9 -22 -17 -28 -9 -6 -16 -15 -16 -19 0 -11 -41 -45 -55 -45 -7 0 -18 -7 -25
-15 -7 -9 -18 -14 -24 -12 -6 3 -11 -6 -11 -20 0 -17 7 -25 25 -29 126 -27
207 -108 215 -215 3 -35 11 -67 17 -72 10 -6 10 -10 2 -13 -13 -5 -7 -44 7
-44 5 0 5 -10 0 -23 -6 -14 -5 -30 1 -41 8 -15 8 -17 -3 -11 -11 6 -11 5 -2
-5 8 -8 9 -20 3 -36 -5 -13 -6 -25 -2 -28 4 -3 7 -38 5 -78 -7 -229 -13 -326
-19 -341 -3 -10 -1 -17 6 -17 7 0 5 -6 -5 -16 -11 -11 -13 -20 -6 -27 5 -5 6
-17 1 -26 -11 -22 -30 -106 -30 -132 0 -32 -54 -121 -93 -153 -19 -16 -52 -35
-73 -42 -39 -14 -164 -15 -164 -2 0 4 -12 6 -27 4 -16 -2 -75 5 -133 15 -58
10 -117 18 -132 19 -15 0 -33 6 -40 13 -7 6 -41 13 -75 13 -35 1 -71 5 -80 9
-10 4 -43 9 -73 11 -30 3 -67 9 -82 15 -22 9 -30 8 -44 -5 -9 -10 -19 -15 -21
-12 -3 3 3 90 13 193 23 233 27 886 6 1108 -25 272 -71 587 -118 803 -9 40
-14 75 -12 77 8 8 448 146 543 171 125 32 242 32 310 0z m-3476 -55 c263 -77
544 -315 689 -583 89 -164 122 -371 88 -548 -36 -184 -85 -259 -218 -336 -42
-25 -82 -51 -88 -59 -16 -19 -3 -35 65 -80 146 -97 218 -289 170 -452 -22 -75
-41 -87 -122 -80 -49 5 -87 16 -135 41 -38 19 -70 31 -73 27 -2 -4 7 -34 20
-67 31 -75 32 -136 3 -194 -35 -69 -129 -110 -254 -110 -92 0 -153 34 -193
109 -56 106 -85 105 -94 -5 -4 -55 -10 -71 -33 -96 -49 -51 -100 -71 -194 -76
-77 -3 -88 -2 -120 20 -92 62 -143 221 -128 398 6 79 5 86 -15 103 -14 13 -29
17 -47 12 -307 -73 -660 158 -745 490 -36 141 -46 466 -19 639 28 183 108 340
246 477 164 165 463 316 746 379 120 27 343 22 451 -9z m2359 -1350 c19 -12
36 -91 22 -105 -20 -20 -10 -36 39 -60 26 -14 67 -47 90 -74 22 -28 52 -53 66
-56 25 -6 40 -38 33 -72 -2 -10 -28 -36 -58 -57 -43 -29 -62 -37 -90 -35 -27
2 -35 7 -35 23 0 11 10 24 22 30 24 10 37 31 27 46 -7 12 -145 11 -164 -1 -11
-7 -9 -11 13 -19 24 -9 27 -16 27 -56 0 -34 -6 -52 -22 -70 -44 -47 -48 -55
-48 -104 0 -34 -4 -51 -15 -55 -20 -7 -75 4 -75 15 0 5 -7 9 -15 9 -8 0 -15 5
-15 11 0 11 -28 9 -63 -6 -12 -5 -17 -3 -15 6 2 10 -8 14 -32 14 l-35 0 -12
98 c-9 70 -18 105 -33 124 -11 14 -20 40 -20 58 l0 33 50 -1 c30 -1 50 -7 50
-13 0 -17 18 -21 84 -16 64 4 60 22 -5 22 -49 0 -60 26 -16 36 98 21 181 115
202 229 10 57 16 64 43 46z m-5247 -240 c35 -35 36 -57 7 -88 -34 -36 -98 -32
-132 8 -32 37 -33 56 -4 86 32 35 91 32 129 -6z m-1448 -948 c4 -2 7 -8 7 -12
0 -7 -199 -91 -215 -91 -4 0 -38 -14 -76 -30 -62 -28 -72 -29 -96 -18 -15 7
-31 26 -36 42 -8 24 -6 32 15 52 19 19 45 28 123 40 55 9 120 20 145 24 42 7
115 3 133 -7z m392 -44 c32 -6 68 -16 79 -24 12 -7 35 -15 52 -18 38 -7 171
-96 180 -120 3 -10 16 -23 29 -29 24 -11 45 -53 45 -90 0 -31 -39 -3 -60 44
-35 80 -219 191 -344 208 -75 11 -89 17 -81 31 8 12 28 11 100 -2z m5592 -75
c27 -17 44 -46 35 -61 -10 -15 -48 -33 -71 -33 -11 0 -39 7 -61 16 -62 25 -66
85 -7 97 31 6 78 -2 104 -19z m3810 -374 c94 -33 123 -47 123 -59 0 -32 -130
-65 -225 -57 -120 11 -155 18 -155 30 0 29 117 116 155 116 11 0 57 -13 102
-30z m290 -292 c13 -27 16 -55 14 -150 -3 -133 -4 -255 -1 -341 3 -94 -42
-136 -90 -85 -18 20 -20 35 -20 150 l0 127 32 36 c31 36 31 37 34 158 3 162 2
159 31 105z m-7516 -18 c10 -6 26 -24 34 -40 14 -27 14 -33 0 -60 -28 -54 -94
-67 -139 -27 -39 34 -42 68 -11 105 21 25 35 32 62 32 19 0 43 -5 54 -10z
m7046 -32 c6 -7 15 -28 21 -46 6 -19 22 -46 35 -62 13 -15 27 -47 31 -71 4
-26 19 -56 37 -77 25 -28 30 -41 27 -75 -2 -34 -7 -42 -23 -42 -11 0 -21 7
-22 15 -1 8 -5 36 -8 62 -5 39 -10 49 -30 54 -21 5 -24 14 -30 70 -6 56 -11
66 -34 77 -22 10 -26 20 -29 60 -3 46 6 59 25 35z m-505 -162 c24 -7 69 -19
100 -25 31 -7 62 -19 68 -27 7 -7 20 -14 30 -14 40 0 182 -116 199 -164 6 -15
20 -30 31 -33 13 -4 25 -23 37 -59 16 -51 16 -56 0 -71 -24 -24 -44 -2 -52 57
-6 45 -14 57 -86 130 -43 44 -84 80 -91 80 -6 0 -32 13 -57 29 -25 16 -62 32
-81 36 -19 4 -44 14 -55 21 -11 7 -45 16 -75 19 -121 13 -140 17 -140 26 0 14
124 11 172 -5z m-7705 -220 c21 -7 85 -28 143 -46 58 -18 128 -40 155 -50 28
-10 61 -21 75 -25 14 -3 45 -14 70 -24 25 -10 83 -31 130 -46 134 -44 160 -60
160 -96 0 -17 -8 -43 -19 -57 -10 -15 -26 -44 -36 -65 -21 -45 -69 -87 -98
-87 -12 1 -67 37 -122 81 -55 44 -122 95 -150 114 -27 18 -65 46 -82 62 -18
15 -49 39 -68 53 -20 14 -63 46 -96 72 -33 26 -69 50 -80 53 -10 4 -19 11 -19
16 0 6 -16 17 -35 25 -70 29 -3 48 72 20z m17585 -76 c50 -14 57 -41 23 -85
-22 -30 -32 -35 -65 -35 -22 0 -58 7 -81 16 -39 16 -40 18 -34 53 8 43 3 37
45 49 47 14 68 14 112 2z m-11711 -32 c6 -11 15 -50 19 -85 6 -43 17 -77 34
-102 45 -64 28 -98 -21 -41 -15 18 -34 30 -49 30 -22 0 -24 4 -24 48 0 26 -8
69 -17 95 -17 47 -17 49 2 63 26 20 42 17 56 -8z m-3896 -54 c101 -31 141 -52
154 -81 6 -14 11 -87 11 -168 0 -131 -2 -145 -17 -146 -46 -3 -72 5 -121 39
-152 106 -265 168 -325 177 -82 13 -83 13 -49 48 16 18 44 57 62 88 33 56 34
57 94 66 70 11 82 10 191 -23z m-3293 -130 c-2 -51 2 -96 12 -129 21 -67 22
-65 -23 -65 -37 0 -39 1 -44 38 -2 20 -10 52 -18 69 -12 31 -12 34 14 60 17
18 27 41 28 63 3 43 7 52 22 47 8 -2 11 -29 9 -83z m-348 50 c11 -29 6 -192
-8 -267 -8 -41 -24 -96 -36 -121 -21 -46 -40 -60 -40 -29 0 9 -10 27 -23 41
-20 21 -23 40 -34 185 -11 164 -8 187 23 187 15 0 21 -19 28 -103 6 -71 21
-96 45 -72 12 11 17 40 19 105 4 85 12 110 26 74z m7140 -46 c3 -13 6 -38 6
-56 0 -42 15 -70 54 -104 l31 -26 -28 -7 c-36 -10 -47 -32 -47 -100 0 -48 -3
-56 -17 -53 -15 3 -18 17 -21 87 -2 64 -8 91 -22 112 -25 34 -25 35 0 66 12
16 20 41 20 64 0 43 14 52 24 17z m-208 -29 c3 -6 26 -23 49 -38 l43 -28 -34
-12 c-19 -7 -34 -15 -35 -19 0 -4 -1 -51 -2 -104 -2 -99 -7 -116 -28 -103 -8
6 -10 32 -6 95 7 100 -2 141 -39 165 -26 17 -32 40 -11 48 22 10 56 7 63 -4z
m-2487 -90 c16 -46 14 -56 -11 -62 -32 -7 -205 -74 -254 -97 -22 -11 -55 -20
-73 -20 -29 0 -34 5 -52 45 l-20 46 20 33 c23 36 73 55 148 57 21 0 70 6 108
13 112 22 121 21 134 -15z m-1235 -384 c31 -8 68 -15 82 -15 30 0 95 -26 106
-43 4 -7 8 -22 8 -35 0 -30 -103 -132 -134 -132 -33 0 -434 68 -446 75 -16 10
-12 41 8 56 17 15 117 76 169 105 32 17 114 13 207 -11z m7139 -404 c31 -49
57 -94 57 -100 0 -5 14 -26 30 -44 17 -19 30 -38 30 -41 0 -4 12 -25 26 -48
20 -32 23 -42 13 -49 -22 -13 -133 -22 -187 -14 -80 11 -83 16 -87 136 -2 57
-6 122 -10 145 -6 35 -3 44 20 72 15 18 32 32 38 32 7 -1 38 -41 70 -89z
m8147 -13 c16 -22 30 -46 30 -53 0 -7 14 -30 31 -51 17 -22 35 -48 40 -59 5
-11 30 -51 54 -90 24 -38 54 -88 66 -110 12 -22 30 -48 40 -58 26 -24 24 -43
-5 -63 -37 -24 -307 -17 -333 9 -16 16 -19 45 -23 250 -5 193 -3 235 9 250 25
30 58 21 91 -25z m-16710 -32 c41 -15 103 -39 138 -53 56 -24 63 -29 60 -52
-5 -39 -81 -61 -253 -72 -192 -12 -305 1 -305 35 0 15 64 76 80 76 4 0 15 19
22 43 13 36 20 43 49 49 59 11 131 2 209 -26z m6828 -310 c120 -38 424 -138
487 -161 39 -14 105 -39 148 -54 102 -36 112 -46 98 -98 -6 -23 -18 -47 -27
-54 -8 -7 -24 -29 -34 -50 -23 -45 -64 -79 -96 -79 -13 0 -36 13 -51 29 -28
29 -309 242 -472 357 -47 34 -102 75 -121 92 l-35 31 28 1 c16 0 49 -7 75 -14z
m1972 -160 c108 -35 148 -54 159 -73 5 -10 11 -85 12 -166 4 -155 1 -166 -42
-167 -16 0 -123 61 -203 118 -90 63 -155 93 -233 107 -242 46 -561 136 -523
149 8 2 76 7 150 11 74 4 158 11 185 17 45 9 233 22 370 26 29 1 81 -8 125
-22z m5537 -52 c54 -14 106 -31 117 -36 10 -5 46 -18 80 -28 33 -10 107 -34
164 -54 57 -20 108 -36 114 -36 6 0 29 -9 52 -19 60 -28 162 -67 391 -151 133
-49 145 -56 145 -86 0 -14 -8 -38 -18 -52 -10 -15 -37 -65 -60 -112 -49 -102
-82 -140 -121 -140 -15 0 -44 12 -64 28 -20 15 -71 54 -114 88 -43 33 -118 90
-168 127 -111 83 -237 179 -366 277 -100 77 -142 107 -194 141 -70 45 -95 67
-83 72 20 8 21 8 125 -19z m-4577 -154 c11 -7 12 -14 4 -27 -14 -23 -18 -25
-204 -92 -91 -32 -185 -68 -210 -80 -91 -42 -133 -21 -128 62 3 46 7 54 37 74
24 17 48 23 86 23 28 0 78 5 111 11 51 10 229 34 274 38 8 0 22 -4 30 -9z
m7293 -49 c203 -95 278 -134 286 -149 5 -9 8 -114 8 -232 l-2 -215 -46 1 c-51
0 -80 17 -406 232 -63 41 -158 81 -194 82 -14 0 -61 9 -105 19 -73 18 -138 32
-304 66 -108 21 -229 54 -258 69 -15 8 -48 17 -73 21 -56 8 -78 20 -63 35 5 5
100 17 209 25 110 8 270 22 355 31 529 53 513 53 593 15z m-17522 -87 c29 -15
30 -16 15 -39 -23 -35 -48 -75 -71 -115 -29 -50 -73 -92 -92 -88 -29 5 -24 22
22 78 25 30 45 59 45 65 1 5 9 28 20 50 11 22 19 46 20 53 0 16 5 15 41 -4z
m8844 -288 c33 -8 82 -18 108 -21 54 -7 87 -33 87 -68 0 -36 -56 -106 -98
-124 -40 -17 -13 -20 -357 39 -124 21 -160 37 -137 60 7 7 57 41 110 76 l97
62 65 -4 c36 -3 92 -11 125 -20z m-3511 -366 c32 -12 33 -32 2 -62 -32 -32
-91 -125 -107 -170 -14 -41 -32 -47 -64 -24 -19 13 -18 15 6 47 14 19 38 59
53 89 23 49 75 130 82 130 1 0 14 -4 28 -10z m2087 -85 c57 -19 113 -39 124
-45 11 -5 32 -14 48 -20 34 -12 45 -37 25 -56 -8 -8 -50 -24 -94 -35 -70 -19
-99 -20 -263 -15 -111 3 -188 10 -196 16 -11 9 2 26 61 83 83 79 126 107 164
107 15 0 73 -16 131 -35z m9429 -55 c34 -11 77 -20 260 -55 137 -26 164 -37
168 -69 3 -21 -5 -36 -35 -65 -21 -21 -53 -58 -71 -83 -54 -76 -52 -76 -363
-24 -151 25 -297 48 -325 52 -28 3 -58 10 -65 15 -25 15 21 56 171 149 154 96
179 104 260 80z m-1994 -581 c19 -11 96 -44 171 -74 76 -29 165 -64 198 -79
33 -14 77 -26 99 -26 31 0 36 -3 27 -14 -23 -28 -115 -44 -278 -50 -152 -4
-163 -4 -188 16 -23 18 -37 20 -147 17 l-123 -3 -22 34 c-26 37 -24 41 27 60
19 7 46 23 60 36 30 26 133 104 139 104 2 0 19 -9 37 -21z m-9327 -414 c11
-25 24 -45 29 -45 5 0 19 -23 32 -50 13 -28 30 -56 37 -62 7 -6 21 -27 30 -47
18 -36 100 -162 113 -171 13 -10 40 -73 40 -95 0 -38 -42 -47 -195 -43 -185 4
-175 -9 -175 238 0 103 -3 207 -6 232 -6 42 -5 46 27 66 19 12 37 22 41 22 4
0 16 -20 27 -45z"/>
<path d="M17612 10004 c-7 -8 -9 -14 -3 -14 13 0 19 -69 6 -75 -6 -3 -6 -7 3
-11 17 -8 15 -24 -3 -24 -20 0 -19 -17 3 -29 16 -10 16 -10 0 -11 -10 0 -18
-4 -18 -9 0 -21 13 -41 26 -41 20 0 17 -27 -5 -52 -18 -18 -18 -23 -5 -43 8
-12 11 -24 8 -27 -3 -4 -1 -22 4 -42 7 -25 7 -36 -1 -40 -9 -3 -8 -7 2 -14 9
-7 10 -11 2 -17 -9 -5 -9 -10 0 -21 9 -11 9 -17 -1 -29 -8 -9 -8 -15 -2 -15 6
0 10 -18 10 -41 0 -25 5 -45 13 -50 10 -6 11 -11 3 -16 -11 -8 -13 -49 -4 -68
3 -5 5 -52 5 -102 0 -52 4 -93 9 -93 6 0 5 -5 -2 -12 -9 -9 -8 -16 5 -30 9
-10 12 -18 7 -18 -5 0 -10 -16 -11 -35 -1 -19 3 -35 9 -35 6 0 6 -6 -2 -15 -7
-8 -8 -15 -2 -15 6 0 9 -31 7 -77 -1 -43 0 -82 3 -86 8 -15 8 -98 0 -103 -5
-3 -6 -10 -2 -16 6 -9 11 -77 18 -223 1 -27 -2 -55 -6 -62 -5 -6 -5 -14 2 -18
7 -4 7 -12 0 -25 -6 -11 -6 -21 -1 -24 11 -7 10 -165 -1 -172 -5 -3 -5 -10 -1
-17 3 -6 8 -23 10 -39 2 -15 5 -43 7 -60 2 -18 -1 -36 -7 -39 -5 -4 -6 -12 -2
-19 11 -18 12 -209 1 -213 -6 -2 -6 -9 -1 -18 12 -18 13 -162 2 -170 -5 -3 -4
-23 1 -43 6 -21 7 -38 1 -41 -5 -3 -4 -14 3 -24 9 -15 8 -24 -5 -44 -13 -21
-14 -27 -3 -36 9 -8 11 -24 6 -56 -4 -25 -3 -48 1 -51 5 -2 4 -16 -1 -30 -9
-22 -7 -27 10 -31 11 -3 20 -12 20 -19 0 -11 18 -14 75 -14 l75 0 0 119 c0
219 -36 856 -71 1231 -39 431 -94 892 -152 1266 -26 174 -34 209 -45 198z"/>
<path d="M13011 9148 c-1 -10 -7 -18 -13 -18 -9 -1 -8 -5 2 -13 19 -14 17 -67
-2 -78 -10 -6 -9 -11 6 -22 13 -10 15 -16 8 -21 -17 -10 -15 -24 6 -29 16 -4
16 -5 0 -6 -20 -1 -22 -9 -9 -30 5 -8 3 -23 -5 -39 -7 -14 -10 -31 -5 -36 15
-19 19 -55 7 -59 -8 -3 -8 -8 0 -18 6 -8 10 -48 9 -89 -1 -41 1 -79 4 -85 6
-10 8 -79 16 -465 2 -118 5 -215 5 -215 1 0 2 -48 3 -108 1 -66 -2 -107 -8
-107 -7 0 -7 -3 0 -8 8 -6 12 -64 5 -82 -6 -18 -5 -170 2 -170 4 0 8 -7 8 -15
0 -8 -4 -15 -10 -15 -12 0 -8 -42 5 -52 7 -5 7 -11 0 -15 -14 -11 -12 -103 3
-130 12 -21 20 -23 92 -23 70 0 80 2 80 18 0 9 -4 100 -10 202 -30 551 -78
1012 -161 1535 -30 190 -37 225 -38 193z"/>
<path d="M8105 8370 c-22 -10 -35 -19 -28 -19 6 -1 11 -16 11 -35 0 -19 3 -39
7 -45 3 -6 8 -41 11 -79 2 -37 7 -79 10 -94 5 -23 3 -28 -12 -28 -16 0 -15 -2
5 -16 16 -12 21 -22 17 -39 -4 -14 -1 -25 7 -28 9 -3 9 -9 -1 -26 -8 -15 -9
-21 -1 -21 6 0 9 -6 6 -14 -3 -8 -3 -17 1 -21 3 -3 5 -22 3 -42 -2 -29 0 -35
12 -30 9 3 18 -1 21 -10 8 -21 73 -9 105 20 23 22 23 24 17 152 -3 72 -15 171
-26 220 -11 50 -22 97 -23 106 -11 60 -74 82 -142 49z"/>
<path d="M8220 7463 c-42 -15 -50 -34 -50 -117 1 -45 -1 -91 -4 -103 -3 -13
-1 -23 3 -23 5 0 6 -11 3 -25 -2 -15 0 -25 8 -25 7 0 5 -6 -5 -16 -12 -12 -13
-19 -4 -30 9 -11 6 -16 -12 -22 l-23 -9 24 -6 c18 -5 21 -9 12 -19 -6 -8 -7
-19 -3 -27 5 -7 5 -29 0 -48 -4 -20 -6 -53 -4 -74 3 -27 0 -37 -7 -33 -8 5 -9
1 -5 -10 4 -10 7 -40 7 -68 0 -40 3 -49 15 -44 8 3 15 0 15 -6 0 -16 88 -3
110 17 27 24 38 94 44 280 5 134 0 240 -17 346 -8 44 -63 76 -107 62z"/>
<path d="M5100 8108 c-63 -32 -134 -93 -182 -157 -48 -63 -100 -180 -101 -225
-1 -91 61 -189 148 -231 53 -27 61 -28 153 -22 158 11 244 46 306 127 57 75
80 136 80 210 0 82 -28 143 -98 214 -95 97 -216 130 -306 84z"/>
<path d="M4085 7746 c-98 -31 -140 -72 -171 -164 -14 -44 -16 -77 -11 -178 4
-108 8 -132 31 -178 43 -88 124 -134 253 -143 137 -11 271 32 339 109 60 69
89 160 89 278 0 104 -19 165 -66 209 -32 31 -57 39 -174 62 -113 22 -231 24
-290 5z"/>
<path d="M4809 7298 c-18 -33 -24 -250 -10 -334 7 -39 21 -85 31 -102 28 -46
56 -42 105 14 37 43 45 47 95 52 103 9 102 27 -7 191 -122 183 -184 235 -214
179z"/>
<path d="M2400 11825 c-27 -15 -47 -25 -68 -31 -25 -7 -6 -113 30 -162 27 -38
29 -46 16 -58 -13 -13 -18 -8 -46 36 -17 27 -36 50 -42 50 -5 0 5 -21 24 -47
34 -49 51 -93 35 -93 -5 0 -15 12 -23 28 -22 41 -75 88 -135 117 -76 39 -197
46 -262 17 -25 -12 -52 -28 -59 -37 -7 -8 -23 -15 -35 -15 -13 0 -25 -7 -29
-15 -9 -24 -38 -18 -73 15 -18 17 -38 30 -45 30 -7 0 10 -21 37 -46 28 -25 39
-39 25 -30 -45 30 -144 73 -185 81 -149 28 -309 -3 -408 -79 l-34 -26 -39 28
c-22 16 -53 32 -69 36 -101 24 -126 26 -184 21 -75 -8 -163 -44 -204 -83 -76
-73 -125 -207 -108 -299 l9 -44 -45 -21 c-127 -60 -186 -214 -130 -342 16 -35
19 -50 10 -53 -28 -10 -65 -48 -83 -86 -11 -22 -20 -42 -20 -44 0 -2 33 -3 73
-3 121 0 261 -62 284 -127 6 -15 18 -49 27 -75 20 -55 30 -64 76 -72 128 -21
267 -112 311 -203 28 -57 19 -64 -15 -13 -14 22 -39 52 -55 66 -47 42 -134 94
-156 94 -12 0 -25 3 -29 7 -4 4 -32 8 -63 8 l-56 0 -23 69 c-28 82 -32 87
-102 134 -44 28 -67 37 -114 40 -97 7 -188 -45 -209 -121 -18 -64 -13 -143 11
-177 27 -38 25 -48 -6 -42 -33 6 -173 -27 -196 -46 -16 -13 -18 -37 -18 -209
0 -183 1 -195 19 -200 11 -3 21 -13 24 -24 3 -10 21 -28 41 -40 36 -21 45 -46
26 -65 -13 -13 -16 -106 -5 -154 10 -45 30 -85 66 -131 40 -51 36 -55 -15 -19
-45 30 -116 108 -116 127 0 14 -29 50 -30 36 0 -23 103 -163 120 -163 10 0 23
-6 29 -14 6 -8 33 -24 59 -35 26 -12 62 -33 80 -46 33 -23 153 -52 202 -47 19
2 31 -6 47 -31 13 -18 23 -39 23 -47 0 -18 99 -112 111 -105 5 3 22 -1 39 -10
29 -15 36 -15 88 0 45 13 67 27 105 68 41 45 48 57 44 83 -4 25 -1 34 18 44
12 7 31 9 41 6 11 -3 25 -2 33 3 8 6 -16 11 -68 16 -45 4 -81 9 -79 11 2 2 85
5 183 8 223 5 362 33 385 77 22 41 11 66 -51 122 -164 146 -572 296 -871 322
-10 1 -21 4 -24 8 -17 16 256 -1 361 -23 124 -26 324 -86 367 -110 10 -6 22
-10 27 -10 24 0 301 -141 477 -243 87 -51 162 -69 189 -47 30 25 10 116 -51
228 -79 144 -105 181 -132 190 -24 9 -25 11 -5 11 20 1 14 12 -52 112 -41 62
-75 114 -75 117 0 3 21 -16 48 -43 54 -57 143 -133 222 -192 63 -47 152 -75
173 -54 41 41 -45 305 -198 606 -95 187 -195 375 -224 419 -17 28 -31 54 -31
60 0 5 59 -78 131 -185 151 -224 243 -342 323 -416 89 -83 122 -67 110 53 -5
50 -4 65 4 60 7 -4 12 -13 12 -21 0 -7 11 -26 24 -42 13 -15 32 -46 43 -68 79
-164 232 -373 265 -363 20 7 22 83 4 168 -17 79 -41 250 -38 263 1 4 -2 26 -7
50 -10 43 -40 317 -46 417 -1 30 -6 72 -10 93 -4 20 -3 37 1 37 5 0 17 -49 26
-108 10 -59 25 -135 34 -167 9 -33 18 -73 20 -88 2 -16 13 -57 24 -90 11 -34
34 -105 51 -157 44 -136 136 -367 143 -359 2 2 6 67 9 144 5 138 11 173 49
310 24 83 74 195 88 195 6 0 10 6 10 13 0 7 14 29 31 48 18 19 29 26 25 16 -3
-10 -6 -22 -6 -27 0 -5 -6 -15 -14 -23 -9 -8 -11 -19 -6 -27 9 -14 32 30 84
160 15 36 46 92 71 124 24 32 49 72 56 88 7 18 21 30 38 34 55 12 63 17 82 47
51 85 -2 193 -104 212 -33 7 -40 14 -63 62 -22 45 -24 56 -13 70 16 18 15 85
-2 126 -7 15 -31 41 -54 57 -28 19 -44 39 -48 57 -7 35 -57 99 -101 131 -45
32 -129 40 -192 18 -62 -21 -59 -21 -75 15 -17 41 -91 89 -138 89 -20 0 -47
-7 -61 -15z"/>
<path d="M8620 11236 c-53 -38 -112 -123 -104 -148 3 -9 0 -27 -6 -39 -10 -17
-8 -25 9 -43 12 -12 21 -26 21 -31 0 -5 9 -18 20 -30 20 -21 20 -22 2 -61 -28
-58 -22 -167 10 -203 41 -44 51 -75 46 -135 -3 -41 -1 -60 10 -68 8 -7 18 -22
22 -34 10 -25 73 -77 98 -79 9 -1 30 -7 46 -14 23 -9 33 -9 52 4 13 8 30 12
38 9 9 -3 16 -2 16 4 0 5 10 12 21 15 15 4 20 11 16 21 -4 9 6 35 22 58 40 60
48 128 23 203 l-20 57 24 35 c62 91 58 203 -10 287 -39 47 -76 60 -159 57 -34
-1 -38 2 -44 29 -3 17 -19 42 -35 55 -29 24 -35 27 -70 29 -10 1 -19 5 -20 11
-3 12 47 22 79 17 34 -6 101 -69 108 -102 4 -19 11 -27 20 -24 15 6 10 30 -11
54 -7 8 -26 29 -41 47 -18 21 -40 34 -63 37 -19 3 -44 7 -55 10 -13 3 -36 -7
-65 -28z"/>
<path d="M165 215 c-92 -45 -139 -65 -152 -65 -10 0 -13 -20 -13 -75 l0 -75
190 0 c214 0 206 -4 165 78 -14 28 -25 55 -25 61 0 6 -4 11 -8 11 -5 0 -18 18
-30 39 -33 59 -54 63 -127 26z"/>
<path d="M6910 109 c0 -8 13 -21 29 -30 18 -10 30 -28 34 -48 l7 -31 185 0
c123 0 185 4 185 11 0 17 -87 50 -158 60 -36 5 -86 16 -111 25 -67 23 -171 31
-171 13z"/>
</g>
</svg>
